<svg xmlns="http://www.w3.org/2000/svg" viewBox="0 0 1053.67 454.81"><defs><style>.cls-1{fill:#4b4341;}.cls-2{fill:#fefefe;}</style></defs><g id="Layer_2" data-name="Layer 2"><g id="Layer_1-2" data-name="Layer 1"><path class="cls-1" d="M0,277.36l24.42,2.55c3.73.39,7.18-.47,10.72-1.68,6.13-2.09,12.39-3.87,18.67-5.45a213.15,213.15,0,0,1,21.69-4.67c3.09-.44,6.66.58,9.68,1.78,5.64,2.25,10.9,5.48,16.58,7.6,3.79,1.42,8,1.82,12.07,2.37,6.15.82,12.39,1.82,18.53.3a37.28,37.28,0,0,0,9.75-3.83c6.43-3.72,13.09-4.69,20-2.39,6.23,2.06,12.31,4.57,18.45,6.91,5,1.89,10,2.85,15.33,1.81a12.37,12.37,0,0,1,6,.47c19.11,6.39,38.55,9.28,58.66,6.05a144.48,144.48,0,0,0,36.75-10.86,24.25,24.25,0,0,0,8.84-7.19c3-3.88,7-5.55,11.1-7.41,3.75-1.71,7.71-3,11.36-4.88a10.91,10.91,0,0,0,3.72-4.16c1.22-2,2.75-3.18,5.09-2.94a13.46,13.46,0,0,0,9.72-2.81c5.1-3.62,10.86-6.37,16.52-9.1,6.21-3,12.64-5.54,19.41-8.47a19.43,19.43,0,0,0-2-2.59c-1.92-1.76-4.21-3.19-5.86-5.17-1.89-2.28-3.78-2.61-6.2-1.25,0-.1,0-.2,0-.3s-.07.08-.06.1a1,1,0,0,0,.13.17c-2.17-.54-4.58,1.78-6.82-.47-2.54.8-6.94-1.24-7.77-3.83-.3-1-1.57-1.57-2.09-2.5-.67-1.21-.95-2.64-1.57-3.89-.44-.89-.09-2.55-1.67-2.5-.21-1-.45-2.13-.69-3.25.06-.16.11-.32.17-.49l-.49.16-.23.08c.08-1.89-1.54-3.5-.85-5.48,0-.06.19-.09.18-.12-.92-4.87,3.3-6,6-8.17,1.76-1.41,3.17-2.26,1.4-5s-1.22-6.31.17-9.08c.85-1.7,3.16-2.88,5.06-3.8,9.26-4.48,18.63-8.71,27.89-13.17,8.32-4,16.57-8.18,24.83-12.31,3.3-1.65,6.38-1.05,9.37.74,3.69,2.21,7.38,4.41,11,6.71a5.76,5.76,0,0,0,5.78.44q13.92-5.91,27.89-11.69a23.17,23.17,0,0,1,5.39-1.53c4.7-.71,7.53,1,9.69,5.21,1.94,3.74,4.2,7.32,6.3,11,1.86,3.23,1.68,4.06-1.19,6.53-1,.87-2,1.8-2.94,2.71a4.17,4.17,0,0,0-1.21,4.91c1.85,4.29.42,8.46-.12,12.68a22.2,22.2,0,0,0,0,2.52c6.86-4.36,13.25-8.15,19.3-12.44,1.77-1.26,3.88-2.6,5.09-4.39,2.25-3.38,5.84-5.11,8.53-7.89,2.3,2.1,3.72,1.66,4.69-1.42a2.76,2.76,0,0,1,.37-.84c1.56-2.06,3.1-4.14,4.74-6.14.79-1,1.48-2.54,3.38-.65a11.54,11.54,0,0,1,.33-3,4.89,4.89,0,0,1,1.63-1.7c1.33-1,2.73-1.9,4.09-2.87a31.21,31.21,0,0,0,4.08-3.09c1.6-1.66,2.77-3.75,4.45-5.3,1.14-1.06,2.85-1.5,4.31-2.21.33-.17.76-.23,1-.48,1.21-1.25,2.39-2.41,4.41-2,.42.09,1-.55,1.61-.91a4.34,4.34,0,0,1,1.25,4.34c-1.44,8.74-2.68,17.52-4.06,26.27-.24,1.52.28,2.07,1.72,1.91,3.65-.41,7.31-.72,10.93-1.26,4-.6,7.93-1.35,11.88-2.14,2-.39,3.84-1,5.78-1.53,5.26-1.3,10.54-2.49,15.78-3.86,4.69-1.23,9.66-2,13.9-4.18,3.44-1.76,7-3.22,10.5-4.66.4-.17.67-.64,1-.95a5.07,5.07,0,0,1,6-.94c1.13-1,2.09-3.44,4-.42l1.06-2,.22.53c1.13-.19,2.67,0,3.3-.65,1.79-1.85,3.87-.9,5.81-1.11,1.75-.19,3.51-.3,5.26-.49a27.49,27.49,0,0,0,2.84-.45c1.77-.39,3.53-.83,5.29-1.25,2.71-.65,5.6,1.45,8.22-.54l1,1.34,4.45-1.57-.1.7c1.65.41,3.7.36,4.85,1.34,2.6,2.23,2.83-1,4.34-1.49l1.18,1.1a46.47,46.47,0,0,0,4.94-.27c1.61-.25,3.18-.82,4.78-1.17,2.16-.46,4.16-1.94,6.62-.48.88.51,2.43,0,3.66-.22a33.55,33.55,0,0,1,4.14-.72c2.68,0,4.52-1.53,6.1-3.3,1.74-1.95,3-2.46,4.92-.93a2.62,2.62,0,0,0,3.07.46c2.35-.87,4.35.14,5.65,2.37a2.29,2.29,0,0,0,.9,1c2.16.88,2.67,2.32,1.89,4.49a2.78,2.78,0,0,0,.34,2.21c3.15,4.26,2.37,8.67.78,13.2-.49,1.41-.39,3-1,4.4a19.69,19.69,0,0,1-2.92,5.05c-2.22,2.61-1.67,5,1.61,6.3.57.23,1.33,1.19,1.25,1.67-.19,1.08-.59,2.48-1.39,3-2.14,1.45-4.57,2.47-6.83,3.77a13.56,13.56,0,0,0-2.12,2l-1.19-.76c-3.35,6-9.36,7.64-15.46,9-1.34.3-2.89-.42-4.29-.24-.79.11-1.48,1.07-2.2,1.67-.29.23-.52.55-.82.76-1.35.92-2.7,1.82-3.85,2.58,4.88.67,9.6,1.26,14.28,2a9.54,9.54,0,0,1,3.71,1.45c2.11,1.43,3.95,1.12,5.75-.42a40.38,40.38,0,0,0,5.39-4.86c3.89-4.82,9-7.3,14.78-9,4.26-1.28,8.78-2.57,12.32-5.07,4.44-3.13,8.75-6.11,13.83-8.23,2.59-1.09,5-3.73,6.41-6.26a14.38,14.38,0,0,1,6.93-6.51c6.22-2.76,12.11-3.4,18,1.27a20,20,0,0,0,8.79,4.07c6.43,1,12.86-.25,19-2.41,3-1.05,5.52-3.24,8.33-4.81,3.17-1.77,6.39-3.47,9.63-5.1,2.09-1.06,4.21-.65,6.36.05,6.43,2.08,12.89,4.06,19.61,6.16.33-2,.5-3.77,1-5.47a30.32,30.32,0,0,1,1.62-3.88c.53-1.24.58-1.87-.9-2.94-2.58-1.84-6.15-1.42-8.26-4-.28-.35-1-.27-1.52-.48-1.24-.54-2.43-1.24-3.7-1.67-1.45-.5-3-.69-4.47-1.18a16.63,16.63,0,0,1-2.69-1.44c-.13-.07-.17-.31-.29-.36q-4.2-1.55-8.42-3a1,1,0,0,0-.7,0c-4.55,2.49-9-.07-13.29-.74-2.52-.38-4.71-2.77-7.08-4.19a13.57,13.57,0,0,0-2.46-.91c-1.55-.52-3.07-1.16-4.65-1.54-3-.74-5.84-1.94-7.8-4.43-1-1.25-.48-2.23,1.12-3.06a6,6,0,0,0,2.68-3.34c.2-.7-1.17-1.9-1.9-2.82-1.51-1.93-4.59-2.78-4-6.2.12-.71-.74-1.69-1.31-2.42A13.49,13.49,0,0,1,793,94.67a3.83,3.83,0,0,1,.71-1.94,3,3,0,0,0,.49-4c-.81-1.45-.14-2.85,1.34-3.76a5.09,5.09,0,0,0,1.5-1.26c.57-.8.8-2.31,1.46-2.49a34.12,34.12,0,0,1,5.3-.5,5.46,5.46,0,0,0,2.55-.68c2.38-1.75,3.8-1.52,6.23.27,2.25,1.65,4.64,3.34,7.78,3a5.73,5.73,0,0,1,3,.44c2.5,1.25,4.44-.35,6.58-1a8.52,8.52,0,0,1,3-.61c4.72.34,9.43.83,14.15,1.26,2-2.15,3.76-.77,5.56.42.19.13.8-.32,1.2-.53s1.14-.92,1.59-.83c2,.41,3.11-.58,4-2.35,1.46.39,2.86.8,4.28,1.12.38.09,1.08,0,1.21-.19.88-1.53,1.82-1.42,3.3-.72a4,4,0,0,0,3.32-.21c2.41-1.62,4.6-.14,6.88,0a8.41,8.41,0,0,0,2.46.22c2.66-.69,5.17,0,7.76.4a8.14,8.14,0,0,0,4.27-.64c2.22-1,3.84.31,5.68.91.53.18,1.36.46,1.64.22,1.55-1.4,2.3-.29,3.11,1.08,1.23-1.83,2.49-2.21,4-.53.28.31,1.08.18,1.64.21a32.15,32.15,0,0,1,5.3.22c2.61.52,5.14,1.42,7.72,2.15a13.16,13.16,0,0,1,2.93.79c4.69,2.64,9.85,3.23,15.06,3.79,4.32.47,8.61,1.28,12.94,1.69s8.77.52,13.16.75,8.79.24,13.19,1.47c3.66,1,7.69.74,11.57,1,1.92.11,3.81-.25,5.59,1.15.89.7,2.5.42,3.75.69,4.91,1.09,9.17,4.3,14.41,4.37a2.16,2.16,0,0,1,1.62,1c1.43,2.67,3.78,3.42,6.57,3.54a5.66,5.66,0,0,1,2.92.69c3.34,2.36,7.34,1.87,11,2.79,4.21,1.06,8.39,2.21,12.59,3.3,1.36.35,2.75.62,4.31,1V155l-11.21.64a17.42,17.42,0,0,0,3.2,5.59c.88,1.17,1.77,2.33,2.69,3.47.28.34.63.84,1,.88,3.56.43,3.7,3.47,3.91,5.81.48,5.48.57,11,.58,16.51q0,132,0,264.05v2.84H0ZM968,174.52a4.53,4.53,0,0,0,.42-.79c1.11-5,2.29-10,3.21-15.08.18-1-.43-2.85-1.07-3.05-2.27-.72-5.19-1.89-7-1-2.91,1.38-5.3.14-7.9.12a29.42,29.42,0,0,0-3,0c-1.17.12-2.32.56-3.48.56-1.4,0-2.8-.35-4.2-.47-2-.16-2.53.81-2,2.66a37.31,37.31,0,0,1,1.08,6.73c.18,2.37,0,4.76,0,7.43A63.16,63.16,0,0,1,968,174.52Zm-62.76-17.47c.37-.53,1.15-1.17,1.12-1.76a3.05,3.05,0,0,0-1.3-1.92,17.58,17.58,0,0,0-3.58-1.78,6.82,6.82,0,0,0-2.65-.42,30.48,30.48,0,0,0-4,.57,11.11,11.11,0,0,0-1.7.6,7.49,7.49,0,0,0,1.49,1.39c.67.35,1.78.16,2.19.64C898.94,156.84,902,156,905.22,157.05Z"/><path class="cls-2" d="M352.47.16,353,0c0,.16-.11.32-.16.49C352.68.38,352.58.27,352.47.16Z"/><path class="cls-2" d="M373.4,16.92a1,1,0,0,1-.12-.17s0-.06.05-.1,0,.2,0,.3Z"/></g></g></svg>