<svg xmlns="http://www.w3.org/2000/svg" viewBox="0 0 1366.81 474.56"><defs><style>.cls-1{fill:#c2d1d8;}</style></defs><g id="Layer_2" data-name="Layer 2"><g id="Layer_1-2" data-name="Layer 1"><path class="cls-1" d="M1366.81,474.56H0V237c3.47.86,6.76,2,10.14,2.44,5.27.68,10.59,1,15.89,1.21,3.57.12,7.16-.39,10.74-.46,12.78-.26,24.87-4.38,37.28-6.66,7.15-1.31,14.25-3,21.32-4.63,6.28-1.48,12.47-3.28,18.74-4.78,9.27-2.23,18.53-4.53,27.88-6.39a98.62,98.62,0,0,1,14.48-1.41c6.32-.31,12.74.28,19-.62,4.72-.69,9.28-2.9,13.75-4.82a94.46,94.46,0,0,0,10.71-5.66c6.28-3.7,12.25-8,18.74-11.25s13.48-5.57,20.91-5.76c5-.13,10,0,15,0,4,0,8.05.29,12-.05,9-.75,18.28-.65,26.43-5.49,3.09-1.84,6-4,8.89-6.15,4-2.92,8.1-4.9,13.1-2.57a1.42,1.42,0,0,0,.89,0c5.44-1.52,11-2.61,15.82-5.94,6.5-4.47,13.25-8.58,19.94-12.78,4.75-3,9.56-5.88,14.4-8.74,4-2.38,8.45-2.63,13.06-2.31a185,185,0,0,0,18.83.54,167.61,167.61,0,0,0,18-1.77,220.44,220.44,0,0,0,43.82-10.86c11.33-4.1,22.06-9.17,31.59-16.57,4.78-3.7,9.28-7.77,13.95-11.63,4-3.27,8.76-4,13.67-4.22,5.26-.25,10.53-.49,15.8-.62,4.21-.1,8.43,0,12.65-.07a15.36,15.36,0,0,0,3.24-.64c4.9-1.16,9.34-.46,13.2,3A11,11,0,0,0,573.6,104c8.77-1.39,17.64-2.18,26.47-3.23,3.41-.4,6.82-.8,10.21-1.32a3.07,3.07,0,0,0,1.59-1.23c6.23-8,14.7-11,24.48-11.55a46,46,0,0,0,8.49-1.79c3.72-.92,7.45-1.84,11.11-3,6.57-2,13.31-3.66,19.59-6.39,10.35-4.49,20.69-4.62,31.43-2,4.69,1.12,9.57,1.39,14.31,2.29,8.91,1.7,17.83,3.42,26.68,5.42,10.06,2.28,20,5.13,30.1,7.2,4.51.92,9.29.75,14,.74,8.12,0,15.44,1.81,22.35,6.51,3.28,2.23,8,2.3,12.14,3.31,15.83,3.91,31.64,7.85,47.5,11.65,1.76.42,3.73,0,5.61,0L899.4,110c1.1,0,2.2,0,3.38,0,2.69-9.16,7.43-16.61,16.28-20.36a38.32,38.32,0,0,1,12-2.79,169.87,169.87,0,0,1,18.61-.07,25.8,25.8,0,0,0,11.21-2.28c4.11-1.73,8.41-3,12.51-4.78,5-2.14,9.91-4.66,14.94-6.81a54.15,54.15,0,0,1,19.43-4.49c4.15-.16,8.3-.28,12.44-.62,10.1-.84,18.84,3,27.51,7.51,6.47,3.37,13.14,6.41,19.89,9.19,2.33,1,5.18,1,7.79,1q27-.18,54-.56a102.82,102.82,0,0,0,13.95-.73c2.28-.35,4.59-1.93,6.44-3.49,10.17-8.62,22-14.15,34.36-18.64,7.48-2.7,13.68-7.5,19.5-12.78,7.07-6.4,13.58-13.51,21.15-19.25,11.55-8.77,25-13.73,39.2-16.62,1.76-.36,3.42-2.19,4.71-3.69A26.21,26.21,0,0,1,1288.23.06c11.74-.54,22.55,2.61,33.18,7.41s19.32,11.49,27.4,19.46q9,8.88,18,17.72Z"/></g></g></svg>