<svg xmlns="http://www.w3.org/2000/svg" viewBox="0 0 1347.1 566.65"><defs><style>.cls-1{fill:#7887a0;}</style></defs><g id="Layer_2" data-name="Layer 2"><g id="Layer_1-2" data-name="Layer 1"><path class="cls-1" d="M1347.1,566.65H0c0-1.51.05-3,.05-4.51V22.78a7.32,7.32,0,0,1,.05-2.39C.57,19.2,1,17.74,2,17.05c2.33-1.72,5.05-2.9,7.4-4.6A52.8,52.8,0,0,1,40,2.3C63.48,1.79,87,1.19,110.57.93,148.85.5,187.14.28,225.43.05q21.82-.13,43.65.08c8.92.08,17.85.19,26.74.78,8.7.59,17.37,1.71,26,2.78,7.86,1,15.69,2.22,23.55,3.27,4.61.61,9.25,1.5,13.88,1.53,24.48.16,49,0,73.45.13a55.29,55.29,0,0,1,9.74,1.13c3.42.62,6.72,1.87,10.15,2.37,8.86,1.28,17.81,2,26.63,3.5a165.72,165.72,0,0,1,32,8.49c11,4.27,22.17,8.2,33.36,12a66.42,66.42,0,0,0,12.67,3c10.82,1.43,21.7,2.3,32.51,3.77,9.51,1.3,19,3,28.42,4.73,11.95,2.19,23.91,4.39,35.79,7,8.81,1.9,17.56,4.15,26.21,6.67a427.61,427.61,0,0,1,83.3,34.33c.72.38,1.77,1.17,1.75,1.74,0,2.09,1.23,2.36,2.79,2.76,12.29,3.1,24.55,6.27,36.83,9.41l61.54,15.68q31.77,8.1,63.55,16.17c23.62,6,47.22,12.09,70.85,18,14.51,3.65,29,7.52,43.61,10.53,24.55,5.07,49.23,9.53,73.86,14.27,11.46,2.2,22.89,4.52,34.36,6.69,13.71,2.6,27.46,5,41.17,7.64,19.05,3.63,38.07,7.4,57.12,11,13.71,2.62,27.45,5.11,41.17,7.68q19.86,3.72,39.69,7.48c5.07,1,10.11,2,15.29,3Z"/></g></g></svg>