<svg xmlns="http://www.w3.org/2000/svg" viewBox="0 0 1411.35 567.57"><defs><style>.cls-1{fill:#5c615b;}</style></defs><g id="Layer_2" data-name="Layer 2"><g id="Layer_1-2" data-name="Layer 1"><path class="cls-1" d="M0,47.44c6.16-2.44,12.27-5,18.49-7.28,4.84-1.77,9.86-3.06,14.73-4.75,3.64-1.26,7.14-2.95,10.77-4.25C50.07,29,56.2,27,62.32,24.94c6.61-2.22,13.38-4,19.81-6.69,6.88-2.84,13.34-6.66,20.15-9.67,6.2-2.73,11.64-7.26,18.63-8.07,12.2-1.43,23.75-.24,33.29,8.66,5,4.63,11.28,6.68,17.67,7.1,4.63.32,9.34.08,13.46,2.18a101.36,101.36,0,0,1,12.25,8c3.59,2.53,6.73,5.81,10.55,7.86,2.59,1.38,6.09.92,9.05,1.75a80.45,80.45,0,0,1,12.46,4.31c6.81,3.2,13.42,6.82,20.06,10.39,7.45,4,14.72,8.37,22.26,12.2,9.38,4.76,19,9.1,28.45,13.69,7.17,3.47,14.25,7.13,21.44,10.57,5.9,2.82,11.89,5.43,17.83,8.17,4.77,2.2,9.5,4.48,14.27,6.69,5.42,2.5,10.85,5,16.27,7.43,7.06,3.24,14,6.62,21.17,9.71,8.54,3.71,17.2,7.13,25.77,10.76,7,3,14,6.19,21.06,9.11,6.52,2.71,13.16,5.15,19.73,7.75s12.83,5.67,19.51,7.63c4.54,1.33,9,2.88,13.62,4.09,9.1,2.4,18.07,5.26,27.18,7.64,6.36,1.66,12.84,2.83,19.27,4.22,6.07,1.3,12.09,3.08,18.22,3.79,8.14,1,15.67,3.86,23.12,6.7,7.29,2.78,14,7.16,21,10.62,8.48,4.16,15.65,10.08,22.71,16.18,2.6,2.25,5.28,4.43,7.64,6.91a20.78,20.78,0,0,0,13.28,6.77c5.45.62,10.79,2.22,16.21,3.17,4.09.72,7.22-2,10.76-3.34,7.53-2.8,14.33-7.22,23.14-6.85,16.15.68,32.36.15,48.54.26A9.93,9.93,0,0,1,747,216c8.53,5.17,17,10.53,25.46,15.75a11.84,11.84,0,0,0,3.49,1.08c4.66,1.05,9.34,2,14,3.08,9.87,2.2,18.7,6.82,27.38,11.81,4.38,2.51,8.9,4.77,13.31,7.22s8.61,5.3,13.15,7.43c6.5,3,13.59,4.14,20.68,4.37,4.73.16,9.49-1,14.25-1.06a100.32,100.32,0,0,1,14.07.89,142.94,142.94,0,0,1,14.76,2.87,51.71,51.71,0,0,1,7.61,3q4.5,1.89,9,3.91c4.27,1.93,8.48,4,12.8,5.81,6.72,2.82,13.38,5.68,20.87,6.27,5.26.41,10.45,1.89,15.64,3.06,4.38,1,9.12,1.46,13,3.53,4,2.19,8.26,3.11,12.5,4.34,7.24,2.09,14.42,1.83,21.73.25,7.82-1.7,15.74-2.88,23.6-4.39,5.53-1.07,11.12-2,16.52-3.56,7.1-2.06,14.35-3.32,21.38-1.27,5.86,1.71,12.15,2.55,17.36,6.49,3.11,2.36,7,2.44,10.93,1.59,5.38-1.15,11-1.28,16.26-2.77,3.74-1.06,7-3.77,10.54-5.51,5.79-2.82,11.68-5.43,17.5-8.18,2.66-1.25,5.15-3.09,7.93-3.85a88.56,88.56,0,0,1,15.33-3c7.27-.63,14.64-.22,21.92-.81,8.65-.71,17.25-2.07,25.89-3,4-.43,8.12-.48,12.18-.71,7.27-.42,14.54-.95,21.81-1.24a94.22,94.22,0,0,1,30.32,3.8c7.55,2.18,15.52,2.92,23.28,4.39,4.22.8,8.42,1.72,12.6,2.71,6.13,1.46,12.23,2.87,18.45.43,9.38-3.68,19.32-4.48,29.19-5.68q9.87-1.2,19.74-2.44c4.93-.62,9.85-1.31,14.78-1.93,1.87-.23,3.46,0,3.2,2.52a13.87,13.87,0,0,0,0,1.58v292.8H0Z"/></g></g></svg>