<svg xmlns="http://www.w3.org/2000/svg" viewBox="0 0 1493.02 745.8"><defs><style>.cls-1{fill:#4f362f;}</style></defs><g id="Layer_2" data-name="Layer 2"><g id="Layer_1-2" data-name="Layer 1"><path class="cls-1" d="M1493,745.8H0V252.25c4.81-.29,9.61-.73,14.43-.85,10.17-.25,20.34-.6,30.51-.41,9.75.18,19.37-.42,28.57-3.76,11.94-4.33,23.9-8.28,36.59-10,9.45-1.32,18.79-3.56,28.11-5.69,12.6-2.87,25.14-6,37.71-9,7.57-1.83,15.13-3.7,22.71-5.44,9.89-2.27,20.19-3.38,29.6-6.91,9.69-3.64,19.48-3.2,29.23-3.62,8.71-.37,17.48,1.05,26.22,1.73q7.74.58,15.45,1.34c3.59.36,7.16.94,10.75,1.32,4.79.51,9.6.94,14.4,1.4,6.61.64,13.31,2.26,19.81,1.65,6.15-.57,11.84.75,17.72,1.34,5.25.53,9.47,3.46,13.79,6.24,9.28,6,20,9.41,28.71,16.63,2.56,2.14,6.28,3.13,9.64,4,3.83,1,7.9.95,11.76,1.8,4.77,1.06,9.73,1.49,13.59-1.42,5.65-4.26,12.13-6.31,18.57-8.48a25.47,25.47,0,0,1,10.62-1.46c6,.7,11.95,2.39,17.91,3.68,15,3.22,30,6.25,44.91,9.75,7.14,1.67,14.19,2.13,21.06-.16,9.74-3.23,19.21-7.24,28.91-10.58,5.33-1.83,10.86-4,16.36-4.17,7.6-.21,14.35-2.75,21.11-5.32,5.41-2.06,10.26-5.51,15.54-7.95a84.92,84.92,0,0,1,24.24-7,48.36,48.36,0,0,0,24.05-10.29c6.13-4.9,12.12-10,18.46-14.6,4.61-3.35,9.44-6.53,15.43-7.16.92-.09,1.73-1.19,2.6-1.82l-.45-.5-5,.56-.35-.69,6-6.08-4.88.53-.67-1,8.14-9.25-6.63.51L721,154h-4.22c2.07-2.48,4-4.84,5.86-7l-4.57.63-.36-.68,6-5.48-3.1-.83,4-4.38c-.79-.69-1.42-1.22-2.28-2l3.54-2.71-.88-.18,2.1-9.7.85.19,7.06,19.63c-1.57,1.15-.27,2.68,1.35,3.43,2.63,1.22,3.24,3.31,3.69,5.81.24,1.35,1.11,2.57,1.6,3.89.9,2.45,2.72,5.08,2.37,7.35-.59,3.74-.14,6.43,3.19,8.74l2.85-3.28-4.26-1.69,4.21-5.61-4.31-1.37c2.12-1.85,4-3.47,5.8-5.09l-.63-.84-5.83.36L752,147l-.5-.62-5.73.38,7.53-9.75.27-.62-.76.06L750,137c-.19-.16-.37-.33-.55-.5l2.47-2.58-2.5-1L755.1,126l-2.59-1.15-.64-1.07,5.46-3.09-.86-.91-1.56-.5L759.85,106l7.44,13.11-2.06.71a48,48,0,0,1,3.95,6.26c1.21,2.73,1.88,5.68,2.82,8.53,1.55,4.75,3.14,9.5,4.71,14.24l.52,11.25,2.87-5.12c-.84-2.3-1.52-4.17-2.19-6l2.55-3.06-3.29-.52,3.56-6-2.11-.81c2.22-6.12,4.36-12,6.63-18.22,2.8,6.78,5.54,12.93,7.86,19.24a28.7,28.7,0,0,1,1.69,9c.06,3.06,3.62,5,2,8.72-.81,1.93.36,4.86,1,7.22,1.12,4,1.09,8.58,5.72,10.88,2.1,1.05,5.73,1.09,6.82-.51,2.2-3.22,1.81-5.81-1.54-7.92l3.58-3.83c-1.9-3.8,1-6.31,3.07-9.29l-2.55-.43c1.36-2.56,2.67-5,4-7.61l-1.44-.51c1.77-3.16,3.53-6.3,5.43-9.67L830,157.24c-2.22,3,2.58,4.23,1.92,6.94v6.66a32.59,32.59,0,0,0,3.57-.3c4.88-1,9.77-2,14.64-3.11,6.61-1.51,12.55.6,18.49,3.1A53.1,53.1,0,0,0,879,174.09c3.18.63,6.7,2.6,9.81-.5.1-.1.43,0,.64,0,3.62.66,7.22,1.77,10.85,1.89,6.07.19,12.17-.45,18.25-.39,12,.11,24.08.61,36.12.66a74,74,0,0,0,23.37-3.5c1-.33,2.55-.66,3.22-.16,3,2.21,6,2,9.38,1.28,6.3-1.43,12.81-1.52,19-3.59,4.28-1.42,8.93-1.69,13.38-2.6,8.24-1.69,16.28-4.52,24.91-3.7a121.6,121.6,0,0,0,13.21.66c9.92-.15,19.36-2.93,28.88-5.46a204.18,204.18,0,0,1,21.38-4.42c8.49-1.32,17.09-1.94,25.6-3.14,5-.7,10-1.94,15-2.94,2.81-.56,5.74-.8,8.42-1.75a112.16,112.16,0,0,0,13.54-5.66c6.26-3.19,12.32-6.79,18.42-10.29.92-.53,1.48-1.76,2.42-2.17,6-2.63,12.24-4.74,18-7.73,10.07-5.19,19.9-10.84,29.76-16.41,7.24-4.08,12.88-9.61,16.06-17.56a8.36,8.36,0,0,1,5.84-5.33c3.93-1,8.23-2,11.37-4.36,10.52-7.83,22.88-10,35.13-12.72a96.45,96.45,0,0,0,14.39-4.72c2.8-1.11,5.18-3.25,7.94-4.53,5.38-2.49,11.08-4.34,16.31-7.1A265.82,265.82,0,0,0,1373,34.2c4.9-3.27,10.24-4.7,15.72-5.91,1.88-.42,4.14.5,6.13,1.1,2.63.8,5.14,2.6,7.75,2.71a161.4,161.4,0,0,0,22.43-.17c4.63-.44,9.15-2.44,13.61-4,1.44-.52,2.6-1.93,3.76-3.07,3.09-3,5.81-6.49,9.22-9.06,4.1-3.1,8.95-5.17,13.13-8.17,8.42-6,18-7,28.23-7.59Z"/></g></g></svg>