<svg xmlns="http://www.w3.org/2000/svg" viewBox="0 0 1433.68 710.01"><defs><style>.cls-1{fill:#b08151;}</style></defs><g id="Layer_2" data-name="Layer 2"><g id="Layer_1-2" data-name="Layer 1"><path class="cls-1" d="M0,710V6.05C3.69,4.17,7.35,2.19,11.11.46A4.49,4.49,0,0,1,14.58.28c11.77,6.43,24.27,11,37.06,14.91a30,30,0,0,0,7.74,1,69,69,0,0,0,7.28-.64c5.46-.46,11-.75,16.4-1.37,10.43-1.17,20.83-2.67,31.27-3.75,15.55-1.6,31.1-3.15,46.68-4.34,8.37-.64,16.81-.75,25.21-.62,5.83.09,11.65.9,17.46,1.56,5.44.61,10.85,1.44,16.27,2.2,6.61.93,13.43,1.15,19.79,3,30.68,8.74,61.23,18,91.85,26.91,15.84,4.63,31.6,9.61,47.62,13.47,14,3.38,28.38,5.46,42.6,8,12.8,2.34,25.6,4.67,38.42,6.84,10,1.69,20.06,3.08,30.07,4.72a22.68,22.68,0,0,1,6.37,1.92q83.59,41.51,167.13,83.09a28.62,28.62,0,0,0,6.57,1.94c1.76.39,3.65.25,5.39.7,1.53.4,2.87,1.68,4.4,1.9a90.16,90.16,0,0,0,9.73.66c7.36.24,14.71.38,22.07.62,5,.17,10,.5,14.94.65,1.55,0,3.11-.46,4.65-.39,6.34.25,12.67.93,19,.88,6.84-.06,13.66-.76,20.49-1.17,3.94-.23,7.9-.27,11.81-.7,6.26-.68,12.47-2,18.74-2.33s12.27-2.15,18.14-4.09a87.7,87.7,0,0,0,15.46-6.52c6.06-3.39,12.62-3.35,19-3.41,9.06-.07,18.13,1.06,27.18,1.78,1.88.15,3.71,1,5.57,1.05,4.26.21,8.64-.41,12.78.37,6.92,1.29,13.81,2.63,20.86,2.29a10.43,10.43,0,0,0,5.73-2,19.32,19.32,0,0,1,12.8-4.33c3.43.08,6.83,1.21,10.26,1.33,5.88.2,11.77-.12,17.65,0,7,.09,14.07.38,21.1.61a5.85,5.85,0,0,1,1.8.38c6.53,2.49,12.74,5.29,18,10.37,3.52,3.41,8.26,5.63,12.64,8.05,6.37,3.53,12.64,7.44,19.42,9.94,9.73,3.6,19.88,6.05,29.84,9,1.79.54,3.49,1.45,5.31,1.84,4.72,1,9.49,1.86,14.23,2.79,3.12.61,6.22,1.49,9.37,1.81,5.81.6,11.65.9,17.48,1.28,7.13.47,14.26.89,21.38,1.33a5.64,5.64,0,0,1,1.6,0c4.7,1.77,9.43,1.33,14.2.31,2-.43,4.15-1.38,5.9-.89,4.34,1.21,9.12.42,13.13,3.17,1.48,1,3.51,1.22,5.11,2.12,4.19,2.35,8.26,4.94,12.44,7.32,4.43,2.53,8.92,4.94,13.39,7.4s8.86,5.46,13.63,7.33c7.91,3.09,16.21,4.56,24.8,3.23a3.06,3.06,0,0,1,1.78.39,90.3,90.3,0,0,1,8.73,4.84c5.47,3.72,11,6.89,17.82,7.7,2.94.35,5.74,1.85,8.68,2.29,2.31.34,4.75-.23,7.13-.22,3,0,6,.25,9.06.31,3.23.06,6.47,0,9.69.06,4.57.14,9.13.5,13.7.56a53.24,53.24,0,0,0,8.53-.23c3.93-.56,8.23,1.17,12.32,2.15,4.5,1.09,9.17,1.91,13.34,3.8,6.59,3,12.8,6.76,19.2,10.15,4,2.13,8,4.71,12.23,6.1,6.52,2.12,12.49,5.92,19.59,6.29,5.14.27,10.27.94,15.41,1.15,4.89.2,9.8.05,14.75.05V710Z"/></g></g></svg>