<svg xmlns="http://www.w3.org/2000/svg" viewBox="0 0 1269.64 464.32"><defs><style>.cls-1{fill:#716926;}</style></defs><g id="Layer_2" data-name="Layer 2"><g id="Layer_1-2" data-name="Layer 1"><path class="cls-1" d="M131.11,68.72c-.5.61-5.2-1.2-5.82-.43.77,2.82,8.34,15,10,16.87-2.08,1.21-10.13-1.54-10.56-.83-.31.91,11.74,13.65,12.59,14.44,2,1.88-8.58,1.78-7.48,3.15,1.7,2.13,6.58,7.83,10,9.24,1.43-3.09,2.85-6.15,4.26-9.21s.69-3.9-3.73-4l2.75-5.64c-.94-.36-1.7-.62-2.43-.93-2.6-1.1-2.65-1.77-.52-3.76a23.13,23.13,0,0,0,6-8.92l-7.77,2.51-.48-.59c1.88-3,3.74-6.1,5.63-9.14,2.61-4.15,2.62-4.14-2.13-5.1a1.68,1.68,0,0,1-.49-.18c1.39-3.31,2.73-6.57,4.13-9.8.33-.75.93-1.38,1.32-2.11.55-1,1-2.11,1.54-3.16l-2.61-.83,10-21.12a13,13,0,0,1,.85,1.71c1.85,5.68,3.43,11.46,5.58,17,1.15,3,3.24,5.63,4.95,8.5l-3.38.8,8.21,12.41L169,69.21c.22.76.21,1.69.61,1.92,1.93,1.13,1.95,2.47,1.27,4.45-.27.79.88,2.08,1.38,3.14l.9,1.9c-.6,0-1.2,0-1.79,0-.13,0-.24.26-.52.61,2.05.79,2.6,2.13,1.08,4L174.49,87c-.75,3.31-.1,6.07,3.14,8.33,1.49,1,2,3.48,3,5.29l-.25.26-3.83-.44,3.83,10.93-1.86-.55c.67,1.19,1.12,2,1.58,2.8l-.27.28c-.24.29-.74.65-.68.85.36,1.24.84,2.44,1.28,3.65l.05,0-1,.86,1,.31-.06,0c-1.26,2.87-.53,4.76,2.16,6.69,2.32,1.67-.85,2.49-1.29,4.32,2.5,3,5.52,6.41,6.17,11.35,2.44.09,4.78.58,6.43,3.17.62,1,2.8,1.59,4.12,1.38,3.53-.53,7-1.6,11-2.58-2.37-2.55-1.2-3.4.79-4.43,1.31-.67,2.15-2.24,3.67-3.94-1.39.08-2.21.37-2.69.08a2.4,2.4,0,0,1-1-1.79,19.7,19.7,0,0,1,.75-3.5c.64-.31,1.29-.61,2.67-1.25l-2.52-.69c0,.73-.07,1.37-.11,2-.43-2-1.71-2.68-3.67-2.76-1.69-.07-1.94-1.09-1.19-2.54a12.08,12.08,0,0,1,5.72-5.35c.94-.47,2.42-1.8,2.27-2.17a18.74,18.74,0,0,0-2.77-3.87l2.42-4.58-2.36-1.25,6.42-6.94a20.15,20.15,0,0,0,2.86-2.41c.36-.42.16-1.32.21-2l-2,.67-6.26,1.13,5.52-6.28-1.63-2,7.13-9.29h-5.42c2.53-3.48,5.09-6.4,6.94-9.71s2.88-6.9,4.61-10.28c3.06,7.83,5.42,15.69,10.94,22.26l-2.1.69c2.09,3.79,4.07,7.41,6.17,11.23l-1.93.46c2.16,2.57,1.7,6.64,5.71,7.81.6.18.82,1.65,1.33,2.79h-4.09l9,14.74-3.22.88c.52,2.54-.83,6,3.2,7.8l-3,1.11c1.65,4.61,1.67,4.72,6.59,4,4.56-.71,9.54-.32,13.16-3.94,1-1.05,1.51-2.67,2.24-4l-3.38-1.74c.41-2.13.86-4.44,1.29-6.71h-7.39l-.34-.73a30.08,30.08,0,0,0,2.22-2.59c.77-1.12,1.38-2.34,2.06-3.53,1-1.76,2-3.55,3.05-5.26a13.6,13.6,0,0,1,2.09-2.51c.46-.45,1.44-.53,1.67-1,.89-1.92-.14-2.84-2-3.21l-.25,1.68h0l-.82.74.12-.75c-1.41-.36-2.82-.71-4.22-1.09-.81-.23-1.59-.52-2.39-.78a6.85,6.85,0,0,0,1.64-.84,11.38,11.38,0,0,0,1.54-2c1.6-2.32,3.17-4.66,4.6-6.77l.41.94.51-.09c0-.92-.41-2,0-2.73s1.47-1.22,2.62-2.08L269,84.57l11.24-11.8-6.16-1.18,8.78-10.18-4.18-1.71,7.61-9.58-2.64-1.37c2.09-5.21,4.1-10.31,6.2-15.37a29.84,29.84,0,0,1,2.06-3.5c1.22,4.75,2.23,8.89,3.37,13,.47,1.7,1.34,3.3,1.83,5,.4,1.36.26,2.91.8,4.19a12.24,12.24,0,0,0,2.58,3.65c1.07,1.07,1.85,1.69,1.42,3.65-.79,3.58,2.69,5.3,4.56,7.63,1.12,1.41,2.9,2.29,4.39,3.42l-.71.92c-.86.33-1.73.62-2.58,1-2.86,1.23-3,2-.69,4.25,2.67,2.61,5.44,5.12,8.83,8.3l-6.94,1.07,1.05,4.41.54-1.12c2.93,3.89,7.17,7,8.52,12l-.09.1-4.91-.5c.34,2.13.67,4.15,1,6.55l1.17-1.6c.22.39.39.57.35.64-.76,1.38-.6,2.07,1,3,3.17,2,6,4.43,9,6.69l-.41.84h-5.51v4.9c.43.06,1.27,0,1.3.2.61,2.83,3.33,3.09,5.2,4.37s3.93,2.08,5.32,3.64c5.92,6.6,13.86,7.56,21.83,7.72,9.06.18,18.14-.79,27.2-.62a130.35,130.35,0,0,0,24.24-1.56c4.75-.81,9.83.26,14.75.61,18,1.31,35.95,1.92,53.92-.21,8.56-1,17.16-2,25.76-2.37A72.7,72.7,0,0,1,516,135c10.57,1.93,20.52,0,29.85-4.62,7.88-3.92,16-3.13,24.07-2.52,10.42.77,20.18,4.26,29.82,8,2.79,1.1,5.28,3,8.11,4a128.34,128.34,0,0,0,14.82,3.94,216.07,216.07,0,0,0,21.42,3.46c5.14.49,10.41,0,15.6-.35,8.07-.58,16.12-1.87,24.19-2.06a131.14,131.14,0,0,1,19.15,1.46c10.13,1.25,20.09,1,29.88-2.13,4-1.28,8.13-2.39,12.11-3.83,5.67-2.05,11.54-1.62,17.35-1.59a141.73,141.73,0,0,1,45.37,8.06c4.44,1.52,8.81,3.25,13.3,4.59a97.32,97.32,0,0,0,12.8,3.08c9.09,1.41,18.23,2.54,27.36,3.68,11.21,1.41,22.41,3.21,33.67,3.94,19.18,1.23,38.27-.51,57.32-2.83,12.81-1.56,25.68-2.52,38.49-4.07,8.83-1.06,17.68-2.3,26.38-4.14,9.82-2.08,19.39-5.42,29.24-7.31a302.74,302.74,0,0,1,31.62-4.24,200.77,200.77,0,0,1,27.42-.48c6.51.34,13,2.12,19.39,3.49,10,2.13,19.86,4.67,30.12,4.38,11-.3,22-1.12,33-1.4,8.64-.22,17.3-.19,25.93.18,9,.38,17.87,1.47,26.81,2,9.55.51,19.11.68,29,1V464.32H0V156.92a25.91,25.91,0,0,1,4.4,0c2.65.42,4.51-.78,6.25-2.49.38-.37.88-.94,1.28-.91,2.46.19,2.7-1.08,2.61-3.14,0-1.08,1-2.18,1.31-3.32a10.39,10.39,0,0,0,.24-2.33L4.23,147.39l-.58-1.11A20.15,20.15,0,0,0,5.9,143.9c.71-1.05,1-2.4,1.81-3.35.93-1.1,2.15-2.64,3.32-2.7,2.49-.14,4.17-.51,4.48-3.37.05-.52,1.08-.93,1.65-1.38l-.26-.7a24.14,24.14,0,0,0-3.61,0c-1.92.28-3.8.85-5.72,1.11-.64.08-1.35-.41-2-.63a13.23,13.23,0,0,1,1-1.6,5.93,5.93,0,0,1,1.13-.77c-1.42-5.49,3.35-5.61,6.23-7.14-.67-4.29-.49-4.55,3.33-6.33a31.56,31.56,0,0,0,4.35-2.46c.52-.35.74-1.16,1.1-1.77a6.87,6.87,0,0,0-1.94-.73,15.92,15.92,0,0,0-3.07.22c-2.93.36-5.86.76-9.54,1.24,3.33-6,9.3-9.11,11.4-15.57l-8.78,1.06-.49-.66c2-1.72,4-3.49,6.13-5.13,1.33-1,3.1-1.76,1.48-4,2.65-1.49,5.69-2.28,6.78-6.14L13.32,85.1l-.55-.86c1.28-1.24,2.52-2.53,3.84-3.72,2.28-2.07,4.67-4,6.9-6.14A8,8,0,0,0,24.69,72c-.75-.22-1.49-.49-2.25-.64-1-.2-2-.3-3.47-.5.67-.83,1.17-1.54,1.75-2.16,1.68-1.78,3.46-3.47,5.06-5.31,2.06-2.37,1.92-2.78-1-4.22-.58-.29-1.12-.65-2.49-1.44l9.17-6.74L28,48.28c1.6-5.7,3.22-11.51,4.85-17.32l1.1-.05c.44,1.59.81,3.2,1.34,4.75.89,2.6,2.56,5.14,2.65,7.75A16.5,16.5,0,0,0,40.32,51c1.88,3.43,3.55,7,5.39,10.61-1.67.7-4,.47-1.44,3.33,1.81,2.07,3.15,4.49,5.67,5.92.32.19.38.81.49,1-1.22.51-3,.78-3.22,1.47-.25,1,.66,2.34,1.08,3.53.14.4.32.79.48,1.19l0,0c.18.6.17,1.54.56,1.75,1.2.66,2.65.88,3.83,1.56S56,82.88,56.47,84a34.82,34.82,0,0,1,2.64,9.51c.35,2.61,2.44,5.1,4.13,7.36,1.41,1.89,1.83,4.69.43,6.36,1.72,2.49,3.43,5,5.51,8l-2.63-.13c.61,1.51.75,2.86-.78,2.81.6,2.61,1.06,5,1.72,7.37a24,24,0,0,0,2.19,6.16c1,1.55,2.75,2.58,4.07,3.75.82-.8,1.73-1.62,2.55-2.52,1.1-1.21,2.17-2.44,3.15-3.74,1.74-2.3,1.49-2.62-1.22-3.23-2.22-.51-4.35-1.45-7.27-2.46,2.83-2.44,5-4.25,7.08-6.16A4.27,4.27,0,0,0,79.23,115c.3-1.43.37-2.92.55-4.51-2.5-1-5.85.12-7.82-2.23,4-3.52,7.79-6.74,11.44-10.06.2-.19-.34-1.76-.57-1.77-2.38-.09-4.76,0-7.15.06-1.35,0-2.71,0-4.42,0C76.14,91.69,82.4,89,85.76,82.19L72.62,83.32a17,17,0,0,1,1.61-2.44c3.11-2.94,5-6.61,7-10.34,1.19-2.22,3.66-3.76,5.54-5.61a7.07,7.07,0,0,0,1.51-1.64,6.46,6.46,0,0,0,.32-2,6.88,6.88,0,0,0-2.16-.08c-2.06.59-4.06,1.4-6.12,2A7.79,7.79,0,0,1,78,63c3.29-2.12,6.21-3.88,7.28-7.75l-5.92-.4c1.74-2,3.25-3.55,4.59-5.25,2.25-2.86,4.52-5.73,6.55-8.75,1.23-1.83,1.13-3.3-1.8-2.79a4.75,4.75,0,0,1-3-.85c1.35-1.26,2.72-2.5,4-3.78,1.51-1.49,3.37-2.8,4.37-4.59,1.39-2.5.61-3.32-2.22-3a4.72,4.72,0,0,1-.84,0,6.12,6.12,0,0,1-1-.42c1.42-1.65,2.72-3.21,4.09-4.72,2.2-2.43,2.18-3.16.17-4.84L100.93,0c.63.7,1.73,1.81,2.7,3a49.89,49.89,0,0,1,3.63,4.92c1.35,2.2,2.52,4.53,3.68,6.84,1.59,3.14,3.11,6.32,4.63,9.49a9.11,9.11,0,0,1,.36,1.66l-4.5-.54c2.46,3.29,2.63,7,5.68,9.3,1.09.83,1.58,2.47,2.2,3.51s1.27,1.86,1.16,2.5c-.41,2.25.62,3.75,2,5.23,3.13,3.25,3.11,3.28.22,5.34l4.94,9.85-2.15.24c2.11,1.83,5.44,6.31,7.14,7.78Z"/></g></g></svg>