<svg xmlns="http://www.w3.org/2000/svg" viewBox="0 0 908.44 531.13"><defs><style>.cls-1{fill:#c4c2b6;}</style></defs><g id="Layer_2" data-name="Layer 2"><g id="Layer_1-2" data-name="Layer 1"><path class="cls-1" d="M908.38,531.13H0V22.26c2.11-1.63,4.62-1.4,7.07-1.76,3.95-.58,7.14.8,10,3.13s5.24,5.62,9.38,6.11l2,.62h0l7.68.08a33.11,33.11,0,0,1,5.31.93,7.5,7.5,0,0,0,7.23-1,10.35,10.35,0,0,1,3.95-1.91c4.06-.69,8.14-.86,12.08.83,1.31.56,2.65,1.41,4,1.46,5.62.2,10.67-1.85,15.55-4.4l1-.41h0l3.27-1.63,0,0,.42-.6a.36.36,0,0,1,.31-.22l.52-.43,0,0,.85-.43,0,0,1.66-.83,0,0L93.75,21l0,0,2.46-1.23h0L97.81,19l0,0,1.65-.83,0,0,3.68-2.05,0,0,.51-.46.1,0,.64-.43,0,0,1.66-.84,0,0,2-.82h0l2.45-1.23,0,0,.43-.43,0,0,.85-.43,0,0,.84-.42,0,0,.42-.43,0,0,.39-.33.77-.08.88-.76a.7.7,0,0,1,.32-.05l2.94-1.24,0,0,.82-.73.79-.11,2.06-1.22v0l2.06-.83,0,0,2.87-1.23h0l3.27-2.06.86-.3,4-1.3h0A30.26,30.26,0,0,1,140.27,0c4.13.21,8.25.74,12.37,1.13h0l2.86,1.63h0l.84.42,0,0,.43.43,0,0,.41,0c2.08,1.3,4.24,2.5,6.23,3.94,4.82,3.51,9.75,6.91,14.26,10.79,2.75,2.36,6.19,2.33,9.16,3.79,1.7.84,4,.42,5.8,1.12A103.4,103.4,0,0,1,203,28c1.92,1,3.55,2.56,5.38,3.76,2.62,1.72,5.34,3.29,7.94,5,2.89,2,5.69,4.07,8.53,6.11l3,1.64a.7.7,0,0,1,.32,0l6.09,2h0l1.25.42,0,0,3.34.43a.84.84,0,0,1,.35.07l4.16.76c1.27-.17,2.69,0,3.78-.57,4.09-2,8.32-.18,12.47-.5,3-.22,6.1,1,9.07,1.9a49.62,49.62,0,0,1,6.56,2.78c2.26,1,4.5,2.15,6.7,3.31,1.06.55,2,1.29,3,1.94A22.26,22.26,0,0,0,287,58.41c2.33,1.18,4.7,2.29,7,3.46.83.41,1.58,1,2.4,1.39,2.55,1.29,5.13,2.51,7.68,3.8.81.42,1.53,1,2.34,1.46,2.52,1.33,5,2.72,7.59,3.89q5,2.27,10.16,4.19c2.25.85,4.65,1.31,6.91,2.13,5.06,1.81,10.07,3.74,15.11,5.62L349.9,86h0l2.58,1.22h.14l.13,0,1.73,1.18.31.29,1.63,1.74h0l.42.42v0l1.24.83,0,0,.82.83h0l.42.42v0l2,2.47,0,0,.43.42v0l1.22,1.23h0l2,1.22c1.74.78,2.9,2.68,5.13,2.61.62,0,1.24.5,1.89.68,3.26,1,6.52,2,9.82,2.8,2.07.52,4.22.75,6.33,1.16,1.29.25,2.55.74,3.85.86,4.32.38,8.65.63,13,1,1.06.08,2.12.18,3.17.36,4.59.78,9.19,1.53,13.76,2.44a28.67,28.67,0,0,1,5.73,1.8c3.22,1.39,6.38,2.46,10,1.49,4.15-1.12,8.37-2,12.56-3,6.24-1.42,12.62-2.39,18.68-4.36a45.81,45.81,0,0,1,16.51-2.14c4.64.21,9.28.45,13.92.84,6.5.54,13,1.23,19.49,1.86,4.73.45,9.44,1,14.17,1.35,5,.37,10,.44,15,.84a18.82,18.82,0,0,1,8.87,3.16c2.58,1.7,5.36,3.11,8,4.67,3.08,1.79,6.21,3.51,9.19,5.45,2.39,1.57,4.72,3,7.67,3.41s5.95,1,8.94,1.47a9.65,9.65,0,0,0,6.63-1.25,36,36,0,0,1,4.06-2.53c5.8-2.56,11.73-4.61,18.22-3,3,.73,6,1.73,9,2.4,7.83,1.74,15.72,3.18,23.5,5.1a26.62,26.62,0,0,0,15.71-.55c3.77-1.35,7.5-2.8,11.26-4.19,1.89-.69,3.78-1.44,5.71-2,2.86-.81,5.75-1.52,8.65-2.18s5.7-.84,8.36-1.8c3-1.1,6.15-2.06,8.79-4.25,1.84-1.53,4.34-2.25,6.56-3.3,1-.46,2-.77,2.94-1.28,2.4-1.29,4.71-2.78,7.17-3.93,1.36-.64,3.08-.51,4.45-1.14a19.33,19.33,0,0,1,7.5-1.55l10.89-.07v0l.61,0,.82.07a5.71,5.71,0,0,0,2,.71c3.77-.3,7.52-.73,11.29-1.11l7.3-2.52,2.87-1.2h0l.83-.84,0,0,1.32-.88.11.06,2.25-1.22h0l1.23-.82h0L785,90.4l0,0,.86-.41c.69-.55,1.35-1.15,2.08-1.65q4-2.73,8.07-5.41a19.49,19.49,0,0,1,3.89-2.39c5-1.79,9.63-4.83,15.26-4.46.16,0,.34-.2.5-.31,1.82-.34,3.66-.6,5.45-1.07.5-.13.83-.89,1.25-1.36h0l4.88-2.85v0l.42-.42h0l.83-.83,0,0,3.66-2.45h0l4.48-3.25h0l1.63-1.23v0l.42-.41h0l.42-.42h0l2-1.17,2.54-2.08,1.52-.4h0l.42-.42v0l.43-.43,0,0,.84-.42h0l2.45-1.22h0l.83-.42h0l3.27-.82c3.21-.12,6.42-.26,9.63-.36,1.11,0,2.21,0,3.32,0a11.7,11.7,0,0,1,2.15.43c2.43,1,4.85,2,7.22,3.09,5.17,2.39,10.34,4.77,15.44,7.3s9.83,5.27,14.86,7.66c2,1,2.64,2,2.64,4.26Q908.35,303.92,908.38,531.13Z"/></g></g></svg>