<svg xmlns="http://www.w3.org/2000/svg" viewBox="0 0 1456.05 689.45"><defs><style>.cls-1{fill:#98654d;}</style></defs><g id="Layer_2" data-name="Layer 2"><g id="Layer_1-2" data-name="Layer 1"><path class="cls-1" d="M0,689.45V17c3.39-.41,6.8-.73,10.18-1.26a82.85,82.85,0,0,0,25.08-7.9C41.87,4.43,48.78,1.73,56.32,1.3,61.49,1,66.67.87,71.85.69,78.45.47,85.12-.38,91.65.2c11,1,22,2.92,33,4.39,9.21,1.22,17.79,4.49,26.48,7.59,7.23,2.59,14.77,5.2,22.33,5.8,9.28.74,18.79-.07,28.07-1.21,8-1,15.54.93,23.11,2.52,4.16.87,8.11,2.92,12.06,4.68,18,8,35.92,16.29,54,24.07,11.36,4.88,23,9.16,34.57,13.48,12.39,4.62,24.9,8.92,37.32,13.45,4.2,1.54,8.2,3.68,12.46,5,9.55,3,19.16,5.87,28.84,8.44,12.9,3.42,25.55,7.54,36.54,15.22,13.88,9.7,27.37,20,41,30A159.76,159.76,0,0,0,519.17,154c7.35,2.83,15.13,4.54,22.76,6.61,12.45,3.37,24.9,6.75,37.4,9.9,11.78,3,23.64,5.64,35.46,8.45l7.2.78,1.22,0,2.07.3,0,0,1.25.27,1.25,0,1.6.38c6.25.7,12.51,1.33,18.74,2.13,7.25.93,14.52,1.82,21.71,3.1,4.1.74,8.05,2.24,12.07,3.38,3.38,1,6.74,2,10.15,2.81,1.76.43,3.71,1,5.39.68,7.85-1.65,15.63-3.63,23.45-5.43,10.14-2.34,20.39-4.26,30.41-7,6.47-1.79,12.74-3.84,19.58-3.41,6.56.41,13.16.29,19.73.73,10.5.71,21,1.63,31.48,2.59,8.31.76,16.59,1.88,24.91,2.55,10,.82,20.12,1.39,30.2,2a30.5,30.5,0,0,1,14.89,4.88,88.12,88.12,0,0,0,10.29,6.14,91.15,91.15,0,0,1,19.44,11.5,21.2,21.2,0,0,0,13,4.34c3.07.08,6.15,1.05,9.17,1.84A17.11,17.11,0,0,0,957,211.77c3.43-1.89,6.79-4,10.34-5.6a41.66,41.66,0,0,1,32.72-1.33,73,73,0,0,0,9.55,2.65c12,2.57,24,4.79,36,7.59,6.33,1.49,12.58,2.3,18.76.37,8.73-2.73,17.27-6.06,26-8.95,6.54-2.17,13.06-5,19.79-5.76,5.86-.68,11.48-1.56,16.88-3.79,1.87-.77,3.56-2,5.38-2.87,3.87-1.9,7.83-3.65,11.66-5.63,6.42-3.3,12.64-7,19.2-10a63.29,63.29,0,0,1,22.21-5.9,122.35,122.35,0,0,1,13.13-.1c5.67.26,11.32,1,17,1.19a24.4,24.4,0,0,0,7.07-1.41c6-1.73,12.47-2.76,17.95-5.6,8.06-4.18,15.45-9.68,23.11-14.64,5.86-3.8,11.55-7.9,17.58-11.42,8.71-5.08,18.46-7.45,28.21-9.59a39.81,39.81,0,0,0,14.53-6.59c7-4.94,13.6-10.41,20.58-15.39a12.12,12.12,0,0,1,6.52-2.16c19.3-.17,38.59-.13,57.89,0a12.84,12.84,0,0,1,5,1.11c4.64,2,9.25,4.13,13.75,6.44,8,4.11,15.89,8.52,24,12.53,3.33,1.66,4.4,3.68,4.39,7.52q-.19,275.25-.11,550.5v4.58Z"/></g></g></svg>