<svg xmlns="http://www.w3.org/2000/svg" viewBox="0 0 977.05 385.88"><defs><style>.cls-1{fill:#a9910e;}</style></defs><g id="Layer_2" data-name="Layer 2"><g id="Layer_1-2" data-name="Layer 1"><path class="cls-1" d="M0,385.88V103a25.52,25.52,0,0,0,2.77-.32c2.59-.59,5.17-1.21,7.74-1.88,7.57-2,15.11-4,22.7-5.93a116,116,0,0,1,11.63-2.3c4.46-.64,9-.76,13.44-1.41,5-.73,10-1.75,15-2.75a52.85,52.85,0,0,0,5.07-1.54c3.38-1,6.82-1.91,10.13-3.14,4-1.5,7.88-3.45,11.9-5a68.52,68.52,0,0,1,18-4,58.64,58.64,0,0,1,15.43.25c3.09.53,6.21.94,9.33,1.33q7.59.95,15.2,1.8c5.28.59,10.57,1.13,15.85,1.7,3.48.38,7,.76,10.44,1.2s6.68,1,10,1.4c5.7.72,11.43,1.33,17.13,2.09,3.75.5,7.48,1.2,11.22,1.78,2.26.34,4.52.66,6.78.94,4.77.6,9.54,1.15,14.31,1.77,3.92.5,7.84,1.09,11.76,1.61,5,.64,9.88,1.42,14.84,1.81s9.87.36,14.81.51l.53.16,3.33-.05.59.1c.29,0,.58.1.86.1,13.32.19,26.63.34,39.89-1.2,4.14-.48,8.29-.76,12.41-1.35A123.43,123.43,0,0,0,371,83.4c6.35-2.51,12.65-5.17,19-7.79,6.88-2.88,13.7-5.92,20.64-8.64,4.76-1.87,9.59-4,14.57-4.76a52.42,52.42,0,0,1,18.45.85c4.41.9,8.46,2.7,12.61,4.44,8.23,3.46,16.78,6.16,25.28,8.93,4.85,1.59,9.84,2.8,14.82,4A91.52,91.52,0,0,0,506,82.07c5.47.67,11,1.6,16.45,1.63,9.7.06,19.4-.57,29.1-.75a166.61,166.61,0,0,0,26.07-2.49c6.1-1.08,12.29-1.94,18-4.37,6.09-2.61,11.8-6.1,17.66-9.24.61-.33,1-1,1.65-1.31,4.2-1.88,8.56-3.45,12.62-5.58,6.29-3.29,12.35-7,18.59-10.44a22.3,22.3,0,0,0,10.36-11.24A6.71,6.71,0,0,1,659.85,35c3.19-1.28,6.56-1.93,9.54-4a41.68,41.68,0,0,1,9.21-4.52,50.69,50.69,0,0,1,9.48-2.41,41.26,41.26,0,0,0,15.12-5.3A82.75,82.75,0,0,1,716,12.72c5.75-2.29,11.07-5.83,16.28-9.29,3.05-2,6.38-2.67,9.74-3.36a7,7,0,0,1,3.83.74c3.9,1.65,7.72,2.69,12.14,1.94a25.08,25.08,0,0,1,9.43.56c5.85,1.32,10.43,5.21,15.24,8.54,4.17,2.88,8.32,6,13.42,6.69A10.12,10.12,0,0,1,802.34,22c2.2,2.49,4.33,2.24,6.95,1.59.86-.21,2.26-.25,2.71.25,2,2.28,4.72,2.75,7.48,3.35,3.31.72,6.54,1.78,9.82,2.63a3.27,3.27,0,0,0,1.49-.19,29.76,29.76,0,0,1,4.44-1.19c2.11-.2,4.26.1,6.36-.08A98.11,98.11,0,0,0,852.43,27a59.57,59.57,0,0,0,22.37-9,54.56,54.56,0,0,1,15.07-7.18A63.56,63.56,0,0,0,901,6c2.85-1.51,5.58-2.68,8.9-2.51,3.84.19,7.71,0,11.57,0a11.58,11.58,0,0,1,2.12.25Q931.28,5.36,939,7l10,2.16c3.51.76,7,1.42,10.62.47,3.18-.83,6.41-1.45,9.58-2.31,2.64-.73,5.22-1.67,7.89-2.53v381.1Z"/></g></g></svg>