<svg xmlns="http://www.w3.org/2000/svg" viewBox="0 0 1577.9 410.36"><defs><style>.cls-1{fill:#352f38;}</style></defs><g id="Layer_2" data-name="Layer 2"><g id="Layer_1-2" data-name="Layer 1"><g id="Layer_1-2-2" data-name="Layer 1-2"><path class="cls-1" d="M1577.9,410.36H0v-197c9.4-3.1,18.4-6.2,27.4-9.1,2.9-.9,3.3-2.7,2.5-5.1-1.9-5.9-1.4-11.7,0-17.7.9-3.9.4-8.1,1.1-12.1.8-4.5,2.3-8.8,3.5-13.2.5-1.7,1.2-3.3,1.6-5A10.13,10.13,0,0,0,33.4,141c-4.1-4-4.5-9.6-3.6-14.9.7-4.7-1.7-7.8-3.8-11.5L22.4,117l.4-5.3-5,.7c-.4-1.7-.4-1.7,6.6-9.7-2-.4-4.9-.5-2-4-3.5.8-7,2.9-7.7-2.4,1.3-.5,2.6-1,3.8-1.6,3.1-1.3,5.5-2.9,6-6.8.9-6,2.6-11.8,3.9-17.7a4.37,4.37,0,0,0-.9-3.1,12.88,12.88,0,0,1-3.8-13.2c1.4-5.2,3.7-10.3,5.5-15.4a12.74,12.74,0,0,0,.2-2.8c.2-1.6-.1-3.5.7-4.7a3.27,3.27,0,0,1,4.5-1.2c.2.1.3.2.5.3a3.2,3.2,0,0,0,3-.3c7.3-4.6,19.6-4.4,26.9.5,2.8,1.9,6.2,2.9,7.3,6.6,1,3.3,1.9,6.7,2.8,10.1,6.1-1.5,11.9-2.8,17.7-4.3.8-.2,1.8-1.2,1.8-1.8a4.07,4.07,0,0,0-1.5-2.5c-3-2.8-6.7-.7-10-1.2a8.67,8.67,0,0,1-3.1-1c.8-.9,1.4-2.1,2.4-2.7,7.2-4,15.6-3.9,23.3-6.3,2.6-.8,3.1.8,3.4,2.7s0,3.2-2.3,3.4c-3.2.3-6.3,1.1-10.1,1.8,8.4,3.2,15.6.1,22.9-1.3,11.5-2.2,22.9-4.8,34.4-7.2,10.7-2.3,21.3-4.6,32-6.8,4.7-1,9-1.9,12.9-5.5,2.3-2.2,6.8-2.1,10.2-3,.9-.2,1.9-.2,2.8-.4,5.9-1.6,5.9-1.6,7.1,4.2,1,4.5,2.1,8.9,3.3,13.9-1.5.5-3,1.1-4.6,1.6a72.09,72.09,0,0,1-9.2,2.1c-2.8.3-5.7-.3-8.5-.4a29.08,29.08,0,0,0-5.9,0c-16.4,3.3-32.7,6.7-49,10.2-1.7.4-3.3.9-5,1.4,1.3,4.7,6.2,2.3,9.6,5l-4.8.9a48.1,48.1,0,0,1,4.2,4.8,8,8,0,0,1,.8,3.7c0,1.9-.2,3.7-.3,5.6,0,2.3.7,3.7,3.5,3.6,2.2-.2,5.7,4.7,6,7.8a25.5,25.5,0,0,0,1.2,6.7q11.85,33.45,24,66.7c.8,2.2,2.9,3.9,4.4,5.8.3.4.9,1.1.8,1.4-2,5.7,1.1,10.5,2.8,15.6,1.9,6,4.2,11.9,6.4,17.8a7.23,7.23,0,0,0,3,3c.5,3.7.5,3.7,3,4.6-1.9,4.7,4,3.1,5,5.7l-.5-3.2,18.2,5.2.9,1.4a15.33,15.33,0,0,0,.2,3.7c.7,2.4,1.8,4.7,2.6,7.1,1.8,5.3,9.2,9.9,14.9,9.3,2.4-.2,4.8-.2,6.4-.3,1.5-2.8,3.1-4.9,3.9-7.2,1.3-3.7,3.1-7.7,2.7-11.3-.5-5.4,2.8-7.9,6-10.3s6.6-5.2,11.1-4.6a1,1,0,0,0,.7-.2c3.7-4.1,9.1-3.3,13.8-4.5a14.17,14.17,0,0,1,5.8,0c4.7,1.1,9.3,3.3,14,3.6,5.7.3,10.7.4,13.3,6.7.5,1.3,2.7,2.4,4.3,2.7,6.7,1.2,7.8,7.5,10.7,11.9a32.38,32.38,0,0,1,2.7,6,23.26,23.26,0,0,1,1.1,3.1c5.4.2,11,.6,16.5.7,2.4,0,4.8-1,7.2-.9,7.4.3,11.7,4.7,14.2,11.4.6,1.7,2.3,3,3.2,4.7,1.6,2.9,2.9,6,4.5,8.8a3,3,0,0,0,2.7,1.2c10.8-2,21.5-4.2,32.3-6.3a11.53,11.53,0,0,1,3.7.2c3.9.6,7.9,1.3,11.8,1.7,8.7,1,17.5,1.9,26.2,2.8,2.2.2,4.4.7,6.6.9,14.1.9,28.1,1.8,42.2,2.5,7.2.3,14.3.4,21.5.2s13.8-2.4,20.2-5.7c29.4-15.2,60.6-25.9,91.8-36.5a133.49,133.49,0,0,1,15.4-3.9,30,30,0,0,1,7.3-.6c5.4,0,10.8-.1,16.2.3a113.34,113.34,0,0,1,12.8,2c5.8,1.1,11.5,3,17.2,3.3,12.2.6,24.4.6,36.6.2,8.3-.2,15.5-4,22.4-8.6,7.6-5.1,15.5-9.6,23.2-14.6,10.8-7,21.6-14.2,32.2-21.4,2.2-1.5,4.1-2.3,6.8-1.9,12.8,1.9,25.5,4.1,38.5,3.2,5.4-.4,10.8-.6,16.1-1.3,5.6-.7,10.9-1.2,16.7-.2,11.2,2,21.9-1.2,32.5-4.7,5.5-1.8,10.9-3.8,16.2-5.9,22.1-8.9,45.4-12.4,68.6-16.9a69.31,69.31,0,0,0,7.9-1.7c8.2-2.8,15.2-.3,21.7,4.5a28.11,28.11,0,0,0,38.4-4.5,40,40,0,0,1,5.3-5.6,64,64,0,0,1,7.9-4.8,47.85,47.85,0,0,0,4.2-2.6c39.3-30.1,81.7-55.2,126.4-76.5,21.5-10.3,43.8-17.7,67.8-18.7a19.56,19.56,0,0,1,6.4,1.1c4.9,1.6,9.7,3.4,14.6,5.1,2.1.7,4.4,1.1,6.3,2.1,14.6,7.4,30.2,10,46.3,11,8.7.5,17.3,1.5,26,1.5a35.46,35.46,0,0,0,14-2.9,33.81,33.81,0,0,1,15.7-2.9,15.51,15.51,0,0,0,9.6-2.6,131.28,131.28,0,0,1,32.5-13.2,21.89,21.89,0,0,0,7.2-3.5,124.63,124.63,0,0,1,41.4-20.6c3.2-.9,6.7-.7,10-.8,9.4-.3,18.8-.2,28.2-.7,5.2-.3,9.7.4,12.6,5.3a5,5,0,0,0,1.4,1ZM79.7,84.16c1.6,3.2,3.3,6.4,4.8,9.8,1.2,2.8,1.5,6,2.9,8.7a40.93,40.93,0,0,1,4.6,16.8c.1,2.5,1.1,2.7,3.1,1.9,3.6-1.5,7.1-3,10.8-4.3,2.3-.8,4.8-1.8,7.1-1.6,3.7.3,8-1.6,9.3-5.1,2.2-5.9,4.5-11.8,6.5-17.8,1.9-5.7,3.2-11.7,5.4-17.3,1.2-3.2,2-7.5,7-7.8.7,0,1.6-1.7,1.8-2.7,1.2-5.5-1.4-9.7-5.3-13.2-1.3-1.2-3.3-2.5-5-2.5-6.1,0-12.1.3-18.2.9a91.23,91.23,0,0,0-11.6,2.2c-2.7.5-5.3,1.2-7.1-2.3L90,53.56a25.08,25.08,0,0,0-7.7-1,2.39,2.39,0,0,0-1.9,1.2c-.4,4-1.2,8-.7,11.9s2.4,7.4-3.3,9.2l6.9,5.5Zm59.4,42.9c-5.6,1.5-10.5,2.7-15.2,4.3a6.44,6.44,0,0,0-3.3,3,78.26,78.26,0,0,0-4,10.5c-1.5,4.8-4.4,9.4-2.9,14.9a1.82,1.82,0,0,1-.8,1.6c-4.7,1.8-4.6,6.1-5.9,9.8a7.54,7.54,0,0,0,1.3.6,112.49,112.49,0,0,1,23.3,10.3c7.1,4.1,15.4,4.5,23.9,3-2.1-18.7-4.1-37.1-6.2-55.5l-.9.1a19.68,19.68,0,0,1,.5,3.5c-.2,10.4-.5,20.9-.8,31.3,0,.8-.9,1.5-1.4,2.2l-1.1-.3c-.4-8.7-.9-17.4-1.3-26.6-4.1,2.6-4.2,0-4.3-2.6C139.7,133.86,139.4,130.66,139.1,127.06Zm54.8,66.3a34.47,34.47,0,0,0-1.2-4.6c-4-9.8-8.3-19.5-12.1-29.4a222.09,222.09,0,0,1-7.6-22.6,8.69,8.69,0,0,0-6.8-6.6c-3.2-.8-6.4-1.4-10-2.2.5,6.3.7,11.7,1.5,17,.6,3.9,1.8,7.6,2.9,12-.4,1.5-1.6,3.9-1.5,6.3.4,7.8,1.3,15.6,2.1,23.4a2.5,2.5,0,0,0,.8,1.8,49.68,49.68,0,0,0,6.2,3.9c.8.4,2.8,0,2.9.4.8,2.8,2.4.8,3.6.7,1.8-.1,3.6-1.1,5.3-1a35.18,35.18,0,0,1,6.7,1.8l.4-1.9Zm-68.7-66.8,3.7-.9c2.2-.5,5.1-.4,6.2-1.8s.3-4.2.6-6.3c.1-.8,1-1.5,1.6-2.2a11.6,11.6,0,0,1,2.4,2c.3.4-.1,1.4.1,2a28.8,28.8,0,0,0,1.3,3.1c1.5-.7,3.3-.6,3.2-3.3-.4-13.6-.5-27.2-.8-40.8-.2-1.4-.5-2.8-.8-4.2-4.5,12.4-8.7,23.8-12.8,35.1l4.7.9c-.4,3.6-.7,6.4-1,9.5l-3.1-2.2c.4,1.7.6,2.8.9,4.2C128.1,122,125.3,122.26,125.2,126.56Zm42.7-.6.8-1c-5.4-14.7-10.7-29.4-16.3-44.9a9.86,9.86,0,0,0-.3,2.4c.9,10.2,1.7,20.3,2.6,30.5.1.7.1,1.7.6,2,2.4,1.7,1.8,4,1.8,6.3,0,1,.3,2.6.7,2.7C161,124.76,164.4,125.36,167.9,126Zm-54.5,9.4-16.7,7,.2.8h13.5Zm-9,23-5.2,3.5c1.1,1.4,2.1,2.6,3.5,4.5.7-2.9,1.1-5,1.7-8Z"/></g></g></g></svg>