<svg xmlns="http://www.w3.org/2000/svg" viewBox="0 0 1078.38 657.25"><defs><style>.cls-1{fill:#be5c18;}</style></defs><g id="Layer_2" data-name="Layer 2"><g id="Layer_1-2" data-name="Layer 1"><path class="cls-1" d="M0,657.25V169.68c1.37-.9,2.82-1.71,4.09-2.74,3.9-3.2,7.73-6.48,12-10.06,1.43,7.67,5.09,13.32,9.43,19.24-1.5-.42-2.71-.79-4-1.09A8,8,0,0,0,20,175a4.64,4.64,0,0,0,0,1.54c1,2.67,2.57,5,5.52,5.42a5.43,5.43,0,0,1,4.79,3.7,29.13,29.13,0,0,1,.88,3.09l3.85-2.51c1.3.13,2.11.46,2.7.23A27.24,27.24,0,0,0,42,184.26c.46-.29,1.08-1.22.94-1.43-.93-1.5.32-2,1.07-2.71.6-.59,1.13-1.23,1.38-1.5l-9.68-3.49c1.78-2,3.17-3.47,4.49-5,4-4.63,7.79-9.37,11.88-13.87,1.72-1.9,2.26-1.61,3.41.69,3.4,6.79,6.81,13.58,10.32,20.6l-2.17,2c.82,1.77,1.46,3.57,4,3.82.81.08,1.46,1.26,2.3,1.7a2.75,2.75,0,0,0,1.78,0c.44-2,2-2.52,3.61-3.14a4.41,4.41,0,0,0,1.91-1.68q3.64-5.49,7.13-11.09c1-1.6,2-1.48,3-.15s2,2.9,2.89,4.41q4.81,8.11,9.57,16.26c.78,1.34,2.21,2.82,2.06,4.08-.41,3.38,1.85,5.15,3.43,7.43a5.32,5.32,0,0,1,.38,2.1l-.61.34a16.45,16.45,0,0,0-2.75-2.42,9.51,9.51,0,0,0-3-.55,6.44,6.44,0,0,0,.41,2.47c1.27,1.93,2.8,3.68,4.12,5.59,1.2,1.73,2.76,3.52,0,5.57l4.06,2.85-4.2.45c3.76,5.5,10.3,6.94,14.81,11.69a30.12,30.12,0,0,0-4.41-1.28c-.57-.07-1.23.61-1.84.95a7.46,7.46,0,0,0,1.32,1.42,17.32,17.32,0,0,0,2.36,1.06l.71,1a5.73,5.73,0,0,1-2,.77c-2.21-.06-4.42-.31-6.9-.5-.84,1.6.55,2.73,1.73,3.63,4.06,3.12,8.65,4.79,13.79,3.62,4.77-1.09,9.12.06,13.28,2.06s8.64,3.47,13.34,3.27c2.06-.09,4,.36,5.94.42a86.64,86.64,0,0,0,9-.53h.51l4.31,0,.51-.07,10.09.1.51,0,5.47-.29c-.26-3.32.24-6.73-.93-9.43-1.56-3.64-4.28-6.82-6.74-10a17,17,0,0,1-3.62-8.77,47.1,47.1,0,0,1,.14-7.69,8.34,8.34,0,0,1,.95-2.4,9.75,9.75,0,0,1,1.91,1.82c1.29,2.13,3.31,2.2,4.65.07.48-.77,1-1.5,1.89-2.74.52,1.46.92,2.31,1.13,3.2.32,1.37-.35,3.09,1.81,3.68,1.41.38,2.64,1.39,4,1.8a66.16,66.16,0,0,0,8.93,2.21c2.43.36,5.12.67,7.39,0,3.81-1.14,7.43-.75,9.94,2.29,3.55,4.29,8.11,5.13,13.35,4.42,2.48-.33,5.14-.84,7.72.84a6.66,6.66,0,0,0-1.09,1c-3.54,5.45-9.16,6.28-14.94,6.71a1.49,1.49,0,0,1-1.08-.66,12.88,12.88,0,0,1-.94-1.94l-1,.67c-.34,3.89-3.24,7.12-2.09,11.54.57,2.23,1.81,2.92,3.3,2.87,3.56-.12,7.1-.74,10.64-1.16a38.48,38.48,0,0,0,4.44-.57c2-.47,4-1.26,6-1.71,4-.89,8.14-1.33,12-2.52,4.19-1.26,8.35-2.38,12.69-1.72,3.56.54,7,1.12,10.64.43,4.27-.82,8.63-1.13,12.89-2,2.91-.56,5.67-1.84,8.57-2.42,4.81-1,9.68-1.6,14.52-2.4,1.76-.29,3.5-.68,5.26-.95,4.36-.67,8.71-1.69,13.09-1.81,5-.15,9.57-1.67,14.32-2.88a65.77,65.77,0,0,0,20.2-9.23,57.7,57.7,0,0,1,7-3.86c3.7-1.77,7.59-3.16,11.22-5.05,6.77-3.54,13.46-7.26,20.11-11,6.2-3.51,11.86-7.51,14.35-14.78a5.3,5.3,0,0,1,4.4-3.48,18.86,18.86,0,0,0,9.94-4.22,8.57,8.57,0,0,1,2.55-1.74c5.9-1.94,11.83-3.82,17.79-5.6,4.29-1.29,8.93-1.82,12.91-3.73,5.89-2.83,11.32-6.4,17.62-8.68,6.06-2.19,11.57-6.14,17-9.77a29.67,29.67,0,0,1,10.89-4.13,10,10,0,0,1,4.52.65c1.9.56,3.66,1.8,5.57,2a56,56,0,0,0,8.69.06c6.26-.2,12.31,0,17.61,4.24a118.13,118.13,0,0,0,10.79,7c4.71,3,9.38,6,15.14,6.67,1,.12,2,1.08,2.93,1.81,2.93,2.44,5.61,5.43,10.08,3.13a2.76,2.76,0,0,1,2.59.31c3.53,4.37,9.12,3.21,13.53,5.18,1.94.87,4.23,1,5.77,1.29a50.84,50.84,0,0,1,6.53-1.62c2.3-.27,4.68.1,7-.1a110.75,110.75,0,0,0,11.95-1.46,68.62,68.62,0,0,0,24.69-9.92,69.49,69.49,0,0,1,9.76-5.52c6.75-3,13.66-5.75,20.48-8.62,2.54-1.07,5-2.13,7.92-2,5,.29,10.18-.34,15.14.38,7.3,1.06,14.48,3,21.72,4.49a120.13,120.13,0,0,0,12.67,2.37c7.48.73,14.46-2,21.44-4.08,5-1.48,9.78-3.9,14.71-5.74q7.7-2.87,15.49-5.4c3.09-1,6.25-2.27,9.42-2.37a58,58,0,0,0,8.82-1,71.87,71.87,0,0,0,18.68-6.54c4.09-2,8-4.4,12.16-6.31A82.24,82.24,0,0,1,859.6,114c4.55-1.32,9.27-2,13.9-3,2.67-.59,5.29-1.75,8-1.85,3.37-.13,6-1.84,8.71-3.25a85,85,0,0,0,10.44-6.61c4.1-3,8-6.21,12-9.4,4.89-3.94,9.59-8.13,15.6-10.42a59.49,59.49,0,0,0,5.8-2.93c-1.92-1.48-2-2.44-.35-3.94.31-.29.8-.67.78-1-.14-1.68.87-2,2.19-2.11a6.54,6.54,0,0,0,1.78-.76l-.13-.34-5.11.7c-.36-4.75,4.59-6.26,5.45-10.25h-4.34c.48-3.92,4.65-4.86,5.77-8.08l-4.46,1-.44-.74,5.61-6.72s0-.11.06-.29a9.49,9.49,0,0,1-1.69,0c-.73-.15-1.44-.44-2.16-.66a9.1,9.1,0,0,1,1.18-1.81c1.23-1.18,2.57-2.23,3.85-3.36a4.78,4.78,0,0,0,.56-.78L939.41,37l4.47-5.19c-.68-1.06-1.8-2.33-1.6-2.59A24.63,24.63,0,0,1,945.61,26c-.25-.42-1.07-1.17-1-1.74a58.22,58.22,0,0,1,2-7.95c.23-.69,1.5-1,2.27-1.5.46,1.13.72,1.77,1,2.41.62,1.6,1.82,3.24,1.71,4.79-.12,1.78.84,2.79,1.27,4.16.69,2.21,3.8,4.11,1.28,6.82,3.65,3.42,3.65,3.42,3.67,5.12L955.72,38A10.32,10.32,0,0,0,956.9,39c1.9,1.14,3.62,2.35,4.41,4.63,1,2.92.81,6.42,3.76,8.51a.68.68,0,0,1,.17.65c-1.42,1.74.58,2.63.93,3.92.2.73.7,1.62.47,2.19-1.45,3.55-.13,6.21,2.45,8.79l2.59-3.11a11.76,11.76,0,0,1-3,0c-2-.61-1.77-2.14.44-4.35a20.09,20.09,0,0,0,1.95-2.67c-1.12-.38-2.25-.75-3.37-1.14a1.81,1.81,0,0,1-.4-.26c-.7-3.45,3.76-3.13,4.27-6H966c2-3.25,5-4.62,7.38-7.21h-6.72l7.69-10.56-3.59.43-.39-.62,2.87-3-2.32-.4c.34-3.88,5.21-4.71,5.33-8.42l-2.13-.17c-.25-3.5,3.55-3.85,4.37-5.53l-2.09-2.26a7,7,0,0,0,2.35-5.85.64.64,0,0,1,0-.23c1-2,2-4,3.24-6.35.52.15,1.93.14,2.32.76,2.15,3.44,4.08,7,6,10.59.35.65.69,1.83.38,2.22-1.52,1.82-.18,2.54.95,3.64.88.87,2.09,2.32,1.87,3.18-.47,1.86.72,2.75,1.62,3.4,1.62,1.18.83,1.94.32,2.51l5.5,14.43a15.73,15.73,0,0,1,1.94-3.72c1.68-1.84,1.08-2.64-1.1-3l3.46-7.32c-1.29-.35-2.12-.78-.7-2.48a19.81,19.81,0,0,0,2.62-4.76c.65-1.5,1-3.14,1.6-4.66a2.51,2.51,0,0,1,1.24-1.14c.21-.1.84.29,1,.6a18.79,18.79,0,0,1,1.42,3c1,3,2,6.09,3,9.1.39,1.12,2,2,.47,3.4a6.59,6.59,0,0,0,.56.8c1.93,2.94,3.65,5.95,3.63,9.63a4.2,4.2,0,0,0,.06,1.67c1,2.2.39,4.89,2.46,6.86,1.82,1.74,1.5,2.75-.56,4.18,1.31,2.13,2.86,4.21,1.5,7a3.84,3.84,0,0,0,.1,2.6c.82,2.41,2.15,4.69,2.63,7.15.53,2.71,3.91,1.58,4.5,3.91,0,.16.71.2,1.1.24a2.27,2.27,0,0,0,.94-.09c.94-.38,1.86-.82,2.56-1.13l2.08-2.17V66.23l-2.78-.32a16.57,16.57,0,0,1,1.38-3.87,9.94,9.94,0,0,1,2.47-2.07,6.61,6.61,0,0,1-1-2.19,18.71,18.71,0,0,1,.52-3.37l-.51-.07,3.91-3.47-2.74-.41,3.61-8.48c-1.28-.67-1.3-1.38-.12-2.93a80.13,80.13,0,0,0,5.09-8.59c1.22-.09,2.36.26,2.21,2.31a3.66,3.66,0,0,0,.57,1.75c1.24,2.41,2.53,4.8,3.79,7.21a7.2,7.2,0,0,1,.3,1.06,25.42,25.42,0,0,0,.89,2.72c.45,1,1.72,2.31,1.43,2.92-.81,1.72.47,2.26,1.16,3.2.34.47,1,1.15.92,1.43-1.45,3.17,1.17,5,2.41,7.19.56,1,1.07,1.43-.33,2.08-.41.19-.55,1.35-.51,2a20.2,20.2,0,0,0,.74,3.12c2.7.37,5.83.09,8-1.89a12.18,12.18,0,0,1-1-2.81c-.06-1.19-.21-2-1.69-2-1.86,0-1.5-1.36-1.17-2.34a11.21,11.21,0,0,1,1.64-2.86c.72-1,1.55-2,2.59-3.25l-5-1.15,5.71-6.61-2.77-1.26,5-5.64C1070,36.5,1070,36.5,1074,31.61c-1.69-.38-2.17-1.12-1.32-2.07s1.9-2.07,2.85-3.1l.49-.65-.85.28c-.15-.48-.54-1.05-.4-1.43.72-2,1.55-4,2.42-6,.15-.33.7-.49,1.23-.83V657.25H614.7c-1,0-2.08-.06-3.13-.09l.48-12.91c.12-.44.25-.88.38-1.31l-.52-.06.12,1.35a8.61,8.61,0,0,0-.6,2c-.17,3.64-.26,7.28-.37,10.93-1,0-1.92.07-2.89.07ZM191.48,244.8l.51.61c2.4-.75,5.15,1.14,7.38-1.39a2.14,2.14,0,0,1,2,0c1.81,1.49,3.67.82,5.58.47s3.71-.59,5.6-.89a3,3,0,0,0,0-1c-1.08-2.77-2.16-5.55-3.32-8.29s-6.83-4.17-8.92-1.93a3.16,3.16,0,0,1-3.83.7c-3.61-1.37-4.36-1-4.25,2.73,0,1.64.48,3.29.36,4.9A20.28,20.28,0,0,1,191.48,244.8ZM78.79,196.43c-.51-.68-.71-1.26-1.06-1.37a1.91,1.91,0,0,0-1.5.2c-1.9,1.44-3.89,1-5.94.49a7.94,7.94,0,0,0-1.89,0c0,.73-.29,1.75.07,2.13a47.51,47.51,0,0,0,4.64,4.08c.3.24,1.15.31,1.33.1C75.94,200.21,77.34,198.31,78.79,196.43ZM1001.88,55.37c.68-1.3,1.27-2.38,1.81-3.48a.71.71,0,0,0-.72-1.16,13.35,13.35,0,0,0-1.74,2.91C1001.07,54.1,1001.66,54.83,1001.88,55.37Z"/></g></g></svg>