<svg xmlns="http://www.w3.org/2000/svg" viewBox="0 0 1577.86 410.31"><defs><style>.cls-1{fill:#fefefe;}.cls-2{fill:#352f38;}.cls-3{fill:#807c82;}</style></defs><g id="Layer_2" data-name="Layer 2"><g id="Layer_1-2" data-name="Layer 1"><path class="cls-1" d="M537.47,152.61c.13.37.27.73.41,1.09l15.79-5.93-.44-1.16Z"/><path class="cls-2" d="M1577.86,410.31H0v-197c9.37-3.11,18.36-6.2,27.43-9.05,2.92-.92,3.27-2.72,2.52-5.08-1.86-5.93-1.38-11.73,0-17.71.92-3.91.35-8.14,1.07-12.11.81-4.47,2.29-8.82,3.53-13.2.47-1.69,1.23-3.31,1.63-5,.88-3.84.35-7.13-2.74-10.19-4.08-4-4.48-9.61-3.64-14.86.74-4.7-1.74-7.75-3.82-11.51L22.34,117l.44-5.34-5,.74c-.35-1.69-.35-1.69,6.65-9.71-2.05-.4-4.86-.47-2-4-3.46.78-7,2.92-7.69-2.4,1.29-.53,2.57-1,3.83-1.56,3.06-1.34,5.47-2.88,6.05-6.83.88-6,2.65-11.79,3.87-17.71a3.93,3.93,0,0,0-.92-3.07,13.07,13.07,0,0,1-3.83-13.24c1.37-5.25,3.72-10.26,5.55-15.4a11.9,11.9,0,0,0,.19-2.76c.17-1.58-.08-3.48.71-4.66a3.26,3.26,0,0,1,4.92-.85,3.47,3.47,0,0,0,3-.28c7.28-4.65,19.58-4.41,26.87.47,2.77,1.86,6.21,2.9,7.28,6.57,1,3.33,1.87,6.69,2.83,10.12C81.22,45.6,87,44.28,92.75,42.82c.75-.2,1.85-1.2,1.82-1.78a4.3,4.3,0,0,0-1.48-2.55c-3-2.76-6.69-.65-10-1.24A18.51,18.51,0,0,1,80,36.14c.79-.91,1.41-2.12,2.4-2.67,7.24-4,15.63-3.92,23.35-6.29,2.58-.8,3.12.84,3.42,2.69s0,3.16-2.35,3.42c-3.16.35-6.29,1.07-10.11,1.75,8.37,3.19,15.59.12,22.86-1.26C131.08,31.59,142.51,29,154,26.61c10.66-2.26,21.3-4.56,32-6.8,4.66-1,9-1.87,12.91-5.5,2.3-2.18,6.75-2.1,10.24-3,.91-.23,1.88-.18,2.78-.42,5.93-1.59,5.86-1.59,7.08,4.2,1,4.47,2.1,8.9,3.29,13.91-1.46.5-3,1.15-4.64,1.57a60.85,60.85,0,0,1-9.25,2.09c-2.8.28-5.67-.28-8.52-.39a25,25,0,0,0-5.87,0C177.64,35.62,161.34,39,145,42.43c-1.69.36-3.33.92-5,1.38,1.27,4.74,6.16,2.3,9.65,5l-4.84.94a43.49,43.49,0,0,1,4.19,4.79,7.57,7.57,0,0,1,.79,3.73c0,1.86-.23,3.72-.27,5.59,0,2.33.68,3.74,3.5,3.55,2.25-.15,5.66,4.7,6,7.75a29.6,29.6,0,0,0,1.21,6.72q11.86,33.39,24,66.68c.8,2.18,2.92,3.86,4.39,5.8.34.44.88,1.09.76,1.44-2,5.72,1.12,10.53,2.75,15.55,1.95,6,4.17,11.91,6.44,17.8a7.31,7.31,0,0,0,3,3c.53,3.67.53,3.67,3,4.57-1.87,4.71,4,3.07,5,5.73l-.46-3.23,18.17,5.19.85,1.44a15.85,15.85,0,0,0,.2,3.73c.72,2.41,1.78,4.72,2.6,7.1,1.82,5.32,9.21,9.91,14.91,9.32,2.4-.25,4.84-.25,6.39-.32,1.53-2.78,3.1-4.88,3.9-7.24,1.27-3.69,3.08-7.66,2.74-11.33-.51-5.4,2.78-7.93,6-10.31s6.57-5.2,11.15-4.65a.86.86,0,0,0,.66-.2c3.73-4.08,9.08-3.34,13.75-4.52a12.77,12.77,0,0,1,5.8,0c4.72,1.07,9.31,3.28,14,3.55,5.69.32,10.7.41,13.28,6.71.53,1.3,2.73,2.4,4.33,2.7,6.73,1.25,7.75,7.46,10.7,11.94a36.61,36.61,0,0,1,2.72,6c.45,1.05.78,2.15,1.12,3.09,5.43.25,11,.64,16.51.69,2.41,0,4.83-1,7.23-.91,7.42.3,11.68,4.72,14.2,11.38.64,1.72,2.3,3,3.2,4.67,1.6,2.9,2.86,6,4.51,8.84a3.2,3.2,0,0,0,2.68,1.2c10.78-2,21.52-4.22,32.3-6.28a11.53,11.53,0,0,1,3.73.21c3.93.55,7.85,1.28,11.79,1.73,8.73,1,17.47,1.87,26.19,2.82,2.22.24,4.41.72,6.63.86,14.06.87,28.12,1.8,42.18,2.47,7.15.33,14.33.36,21.49.17s13.84-2.42,20.18-5.7c29.41-15.23,60.64-25.87,91.85-36.54a136.52,136.52,0,0,1,15.36-3.9,35,35,0,0,1,7.31-.61c5.4,0,10.82-.12,16.2.28a115.53,115.53,0,0,1,12.76,2c5.76,1.07,11.47,3,17.25,3.27,12.19.56,24.43.56,36.63.23,8.32-.23,15.52-4,22.37-8.64,7.56-5.12,15.54-9.62,23.2-14.59q16.25-10.53,32.25-21.41c2.17-1.47,4.13-2.27,6.82-1.86,12.76,1.95,25.53,4.08,38.53,3.17,5.39-.37,10.8-.61,16.14-1.32,5.58-.74,10.92-1.2,16.66-.16,11.16,2,21.91-1.23,32.45-4.67,5.47-1.78,10.89-3.75,16.22-5.89,22.07-8.87,45.43-12.44,68.58-16.91a61.59,61.59,0,0,0,7.92-1.7c8.18-2.76,15.16-.3,21.73,4.5a28.18,28.18,0,0,0,38.45-4.46,39.27,39.27,0,0,1,5.27-5.64,77.59,77.59,0,0,1,7.94-4.81,45.32,45.32,0,0,0,4.18-2.56c39.35-30.1,81.73-55.17,126.4-76.48,21.5-10.27,43.75-17.67,67.77-18.66a18.84,18.84,0,0,1,6.43,1.15c4.9,1.58,9.72,3.43,14.59,5.13,2.1.73,4.38,1.08,6.34,2.07,14.56,7.36,30.21,10,46.28,11,8.66.53,17.33,1.5,26,1.46a35.24,35.24,0,0,0,14-2.89,32.89,32.89,0,0,1,15.67-2.88,16.55,16.55,0,0,0,9.64-2.56,130.89,130.89,0,0,1,32.54-13.21,21.44,21.44,0,0,0,7.17-3.45,126.36,126.36,0,0,1,41.41-20.62c3.17-.9,6.69-.71,10-.8,9.39-.26,18.79-.2,28.17-.68,5.25-.27,9.73.38,12.64,5.3.27.45.9.69,1.37,1ZM79.71,84.12c1.57,3.19,3.35,6.4,4.75,9.78,1.16,2.8,1.52,6,2.87,8.65a40,40,0,0,1,4.58,16.81c.08,2.47,1.09,2.74,3.14,1.86,3.55-1.52,7.12-3,10.75-4.3,2.29-.8,4.77-1.83,7.08-1.64,3.65.29,8-1.61,9.26-5.08,2.18-5.92,4.46-11.81,6.46-17.8,1.91-5.73,3.2-11.7,5.38-17.32,1.25-3.23,2-7.49,7-7.75.66,0,1.58-1.7,1.79-2.74,1.17-5.52-1.43-9.72-5.27-13.22-1.34-1.22-3.29-2.48-5-2.47-6.05,0-12.13.35-18.16.94A110.32,110.32,0,0,0,102.69,52c-2.68.55-5.3,1.2-7.12-2.27L89.8,53.42a25,25,0,0,0-7.72-1c-.66,0-1.84.7-1.89,1.16-.4,4-1.22,8-.69,11.93s2.36,7.39-3.29,9.2l6.87,5.5ZM139.15,127c-5.58,1.53-10.46,2.72-15.22,4.28a6.21,6.21,0,0,0-3.33,3,86,86,0,0,0-4,10.49c-1.54,4.82-4.38,9.41-2.92,14.86a1.92,1.92,0,0,1-.85,1.63c-4.67,1.8-4.56,6.15-5.88,9.79a12.65,12.65,0,0,0,1.35.65A112.29,112.29,0,0,1,131.58,182c7.15,4.15,15.36,4.5,23.85,3-2.08-18.66-4.14-37.1-6.2-55.54l-.88.12a20.57,20.57,0,0,1,.48,3.46c-.22,10.43-.47,20.85-.82,31.28,0,.75-.9,1.47-1.38,2.2l-1.11-.29c-.44-8.7-.88-17.4-1.34-26.59-4.05,2.56-4.17,0-4.33-2.63C139.66,133.82,139.4,130.58,139.15,127Zm54.79,66.28a40.69,40.69,0,0,0-1.25-4.62c-4-9.81-8.31-19.53-12.14-29.42-2.87-7.4-5.49-14.93-7.63-22.57a8.65,8.65,0,0,0-6.75-6.61c-3.18-.84-6.42-1.42-10-2.2.52,6.28.74,11.67,1.5,17,.55,3.87,1.82,7.64,2.92,12-.38,1.49-1.62,3.92-1.5,6.29.42,7.83,1.31,15.64,2.07,23.45a2.72,2.72,0,0,0,.77,1.81,55.4,55.4,0,0,0,6.16,3.94c.84.45,2.83,0,2.93.39.77,2.77,2.45.81,3.58.72,1.78-.14,3.56-1.13,5.27-1,2.24.19,4.42,1.15,6.66,1.79l.39-1.88Zm-68.72-66.82,3.71-.9c2.16-.52,5.06-.39,6.25-1.76s.28-4.15.58-6.28c.11-.79,1-1.47,1.55-2.2a12.91,12.91,0,0,1,2.39,2c.33.45-.13,1.41.06,2a25.94,25.94,0,0,0,1.3,3.09c1.47-.69,3.26-.63,3.18-3.3-.4-13.6-.54-27.21-.82-40.81a28.7,28.7,0,0,0-.84-4.16c-4.54,12.41-8.68,23.76-12.84,35.12l4.69.95c-.39,3.58-.69,6.41-1,9.48l-3.1-2.24c.35,1.67.58,2.81.86,4.15C128.1,121.86,125.31,122.16,125.22,126.46Zm42.63-.58.81-1C163.3,110.17,158,95.47,152.32,80a14.76,14.76,0,0,0-.34,2.4q1.29,15.24,2.65,30.45c.06.69.12,1.67.56,2,2.41,1.68,1.83,4,1.79,6.35,0,1,.27,2.61.72,2.73C161,124.73,164.45,125.26,167.85,125.88Zm-54.44,9.46-16.72,7,.16.75h13.54Zm-9,23-5.16,3.49c1.06,1.35,2.06,2.62,3.54,4.48C103.42,163.4,103.85,161.33,104.45,158.38Z"/><path class="cls-3" d="M537.47,152.61l15.76-6,.44,1.16-15.79,5.93C537.74,153.34,537.6,153,537.47,152.61Z"/></g></g></svg>