<svg xmlns="http://www.w3.org/2000/svg" viewBox="0 0 1413.44 601.73"><defs><style>.cls-1{fill:#352f38;}</style></defs><g id="Layer_2" data-name="Layer 2"><g id="Layer_1-2" data-name="Layer 1"><path class="cls-1" d="M536.79,325.89a10,10,0,0,1,.73,1.56c.94,3.46,3.43,5.57,6.71,5.48,3.48-.1,6.95-.34,10.42-.51a37.41,37.41,0,0,1,12.86.87c1.51.34,3.27-.44,4.92-.67,2.49-.36,5-1,7.46-.93a24.91,24.91,0,0,1,7.38,1.66,21.72,21.72,0,0,1,6.67,3.51,24.86,24.86,0,0,1,4.87,6.24c1.2,2,2.81.51,3.91,5.75,2.27,5.1,1.64,3.54,2.69,5.19,1.76,2.77,4.53,5.27,4.9,8.46a16,16,0,0,0,3.38,7.77c.71,1,1.3,2,1.89,3,6.48-.89,12.9-1.5,19.21-2.7,10.05-1.92,20-4.17,30-6.41,2.86-.64,5.58-1.93,8.44-2.52,9.55-2,18.55-5.66,27.64-8.93,5.61-2,11.34-3.92,16.7-6.88,6.37-3.53,13.44-5.77,20-8.92,5.48-2.6,10.73-5.68,16.05-8.59,1.42-.78,2.66-2,4.15-2.54,7.58-2.82,13.92-7.76,20.76-11.84,1.26-.76,2.08-2.77,3.3-3,3.84-.6,6.27-3.33,9.19-5.3,8.32-5.62,16.64-11.24,24.85-17,4.07-2.86,7.74-6.41,11.73-9.22,7-4.92,13.59-10.26,20.25-15.57,2.4-1.91,4.54-4.13,6.92-6.07,4.67-3.81,9.5-7.42,14.11-11.29s9.24-8.24,13.95-12.26c5.13-4.38,10.36-8.63,15.59-12.89a11.34,11.34,0,0,1,3.88-2.48A133.78,133.78,0,0,1,918,215.34c7.78-1.06,14.6-3.49,20-9.62,7.09-8.11,15.18-15,25.1-19.62a82.4,82.4,0,0,1,28-7.33,21.92,21.92,0,0,0,6-1.43c4.48-1.76,8.71-4.19,13.24-5.79,10.09-3.57,20.27-6.89,30.46-10.15,3.47-1.11,7.1-1.74,10.65-2.61,5.34-1.3,10.61-2.94,16-3.87,12.32-2.14,24.71-3.88,37.28-3.62,5.8.12,11.61,0,17.4.13,6,.15,12.06.73,18.08.68,8.42-.05,16.84-.53,25.26-.79,6-.19,12-.29,18.07-.48,2.39-.07,4.78-.34,7.17-.41,5.76-.18,11.52-.24,17.27-.46,4.22-.16,8.44-.65,12.66-.73,14.23-.26,28.47-.41,42.71-.61,10-.13,20,.06,29.92,2.12,7.08,1.47,14.33,2.09,21.41,3.71q11.55,2.64,23.2,4.78c12.34,2.27,24.71,4.39,37.08,6.57,3.32.58,6.67,1.08,10,1.71,5,.93,9.9,2,14.86,2.92,4.53.87,9.06,1.69,13.6,2.53,0,2.12,0,4.24,0,6.37,0,245.22-.51,10.3-.51,255.53,0,1.13,0,111.32,0,112.45,0,0-.5-108.14,0,32.65,0,1.91.1,21.77-1.81,21.76C941,600.19,469.84,590.12,0,590.12V317.27a52.37,52.37,0,0,0,19-2.66c2.69-.85,5.4-1.66,8.13-2.37a107.44,107.44,0,0,0,17.64-6c2.47-1.13,4.88-2.41,7.62-3.76-.7-3.24-1.21-6.14-2-9s-1.93-5.63-.57-8.65a2.88,2.88,0,0,0-.07-2.06c-1.27-3.21.85-6.34.19-9.53a1.54,1.54,0,0,1,.39-1.12c2-2.13,1.7-4.88,1.28-7.24-.65-3.58-.19-7,.22-10.48.51-1.38,1.14-2.73,1.51-4.14,1.69-6.37,3-12.86,5-19.12a89.73,89.73,0,0,0,3.79-13.76c.68-4.28-.52-7.26-3.39-10.19A24.47,24.47,0,0,1,51.5,189c.09-4.23,0-8.47.3-12.67.24-2.94-.46-5-3.33-6-.57-2.58-.78-5.36-3.76-6.7l-4.13,2.7-.71-.52,1.86-6.53c-3.12,0-12.7,4.17-16.26,4.17.43-1.83,4.35-2.39,4.71-3.94.16-.19,4.46-3.12,4.56-3.34,4-1.13,5.26-6.78,8-9.46.34-.33.11-1.25.14-1.87l-5-1.44,2.55-3.94c-3.43-1.09-6,0-8.53,1.69l-1.08-.28c-.79-1.62-.9-2.52-5.25-1.21.56-.28,3.52-4.48,3.91-4.59,7.52-2.15,13.79-5.5,15-14.35.38-2.75,1.82-5.35,2.31-8.1,1.07-5.94,1.69-12,2.81-17.91a6,6,0,0,0-2-6.3,17.36,17.36,0,0,1-6-13.49,60.51,60.51,0,0,1,6.77-26.35c.63-1.25,1.15-2.55,1.73-3.83l.3-.3,1.12-2.91h0c-1.65-4-1.65-4-.65-7.89l.75-1.12.84-.64,2.89-1.31L58.7,31l0,0c2.67,2.58,3.36,2.55,5.78-.09l1-.79L73.83,26l1-.23,12.06,0,1.57.16,9,1.82,5.24,1.91,3.09,1.68.17.16,1.92,1.26,1,.82.51.26,2.2.54,5,4.84a2.72,2.72,0,0,0,.74,1.12,24.87,24.87,0,0,0,.46,4.17c.93,3.27,1.57,6.67,3.68,9.49h0l1,4.45c2.41-.21,4.3-.41,5.77-1.94l1.58-.3c2.6-.5,5.21-1,7.8-1.5C141.76,53.87,145.9,53,150,52c1.68-.4,3.33-1.12,3.62-3.12s-.86-3.49-2.4-4.64-2.91-2.08-4-2.82c-5,.35-9.64.74-14.27.93A2.73,2.73,0,0,1,130.81,41c-.2-.89.11-2.58.72-2.87,3-1.48,6.09-3.11,9.34-3.72,2.74-.52,5.18-.91,6.15-2.76,5.91-1,11.26-.7,16.42-2.41a65.11,65.11,0,0,1,8.17-2.06c.81-.15,2.39.28,2.54.78a17.08,17.08,0,0,1,1,6c-.15,1.94-2.21,1.78-3.72,2-4.18.67-8.35,1.34-12.51,2.11a9.91,9.91,0,0,0-2.39,1.14c.37,1.93,1.45,1.7,2.65,1.61a10.88,10.88,0,0,1,4.53.19,15,15,0,0,0,12.17-.35l2.29-.59a80.24,80.24,0,0,0,18.75-4l1.67-.21a7.2,7.2,0,0,0,6.09-1.57l2.46-.29c6.09-.76,12.17-1.61,17.92-4l1.64-.17a8.76,8.76,0,0,0,2.49.11c5.53-1.35,11-2.8,16.55-4.22l1.52-.06c2.16.49,4-.36,5.7-1.51l2.33-.44a5.65,5.65,0,0,0,4.66-.66l2.2-.91a58.23,58.23,0,0,0,6.07-.53q14.51-3,28.94-6.11a30.22,30.22,0,0,0,4.23-1.54l2.42-.33a9,9,0,0,0,7.12-2l4.2-4.52L321.76,4l3.54-.31,5.86-1.51,2.69-.43a32.15,32.15,0,0,0,5.31-.7c6.31-1.91,7-1.59,8.33,4.67.24,1.1.28,2.25.61,3.32.62,2,1.37,4,2.07,5.93l.19,1.55c.76,4.24,1.52,8.47,2.36,13.12-2.36.77-4.56,1.64-6.84,2.21-4.78,1.19-9.61,2.23-14.42,3.34-4.3,1-8.47,1.78-12.75-.6a10,10,0,0,0-6.14-.64c-7.49,1.29-14.93,2.9-22.39,4.4-6.78,1.36-13.57,2.69-20.33,4.12-5.23,1.11-10.41,2.47-15.65,3.54-7.74,1.58-15.51,2.95-23.24,4.54-2.43.49-4.77,1.39-8,2.35l3,2.83.93.85a2.51,2.51,0,0,0,3.22,1.55l4.62.16,3,.83c.73,1.86-.26,2.67-1.92,2.81a14.65,14.65,0,0,1-2.91-.36,1.87,1.87,0,0,0-.32-.08s-.05.13-.08.21l.44-.25c-.77,1.83.51,2.82,1.58,3.92a52.41,52.41,0,0,1,4.88,5.25,4.83,4.83,0,0,1,.93,3.78c-1.35,3.76-.94,7.54-.7,11.33.23,3.6.87,4,4.38,4.27,1.49.1,3.64.1,4.3,1,2.87,3.91,6.28,7.69,5.82,13.15a9.92,9.92,0,0,0,.51,4.08c1.57,4.66,3.32,9.28,5,13.92q3.78,10.52,7.54,21,3.42,9.51,6.86,19,3.28,9.14,6.59,18.27c3,8.47,6,17,9.1,25.43,1.93,5.28,3.87,10.57,6,15.75.77,1.83,1.77,3.74,3.93,4.6,2.77,1.11,2.82,1.41,2.09,4.42A17.76,17.76,0,0,0,302,241c4.14,11.68,8.2,23.38,12.37,35,1.22,3.4,2.71,6.7,3.95,9.72l4.06-.83a9.72,9.72,0,0,1,.21,2c-.18,1.48-1,3.25-.51,4.33s2.49,1.23,4,1.86c-.17,1.32,4.69-.47,4.52.9,2.84,1.63-.18.08,2.5,1.61-.19-1.68.26,2.67,0,.22,8.58,4.44,16.81,7.23,25.67,8,1,.1,2,.9,3,1.38.1,2.61,2.85,5.56-.67,7.27a15.2,15.2,0,0,1,1.65,3.09,9.9,9.9,0,0,1,0,2.92c-.73-.53.66,1.24-.3,2.58s-2.34.2-1,.58l3.72-.09.26-.1,1.64.82c.26.88.55,1.75.78,2.64.32,1.24.61,2.48,1,4.26.54.27,2.34.56,2.66,1.41,1.34,3.53,4.75,4.29,7.46,5.57,2.93,1.37,5.61,3.84,9.31,3.36,2.2-.29,4.46-.18,6.68-.37,2.61-.21,5.21-.56,8.23-.9-1.35-4.55.68-7.51,3.44-10.42a7.79,7.79,0,0,0,1.86-4.95,19.8,19.8,0,0,1,2.37-8.86c1.71-3.46,1.18-6.82-.17-10.23,3.42,0,.17-2.89,1.92-3.91,1.43.58,2.32,0,3.35-1.59a22.33,22.33,0,0,1,5.49-5.65,69.85,69.85,0,0,1,8.85-5.21,8.87,8.87,0,0,1,4.35-1.34,12.22,12.22,0,0,0,10.21-4c2.21-2.3,5-2.72,8.15-2.23a13.1,13.1,0,0,0,6.49-.79c3.83-1.51,7.49-2,11.38-.38a9.64,9.64,0,0,0,4,.89c5-.34,9.29,1.88,13.64,3.67a20.25,20.25,0,0,0,10.62,1.39c5.23-.8,9.23,1.29,11.19,6.28,2.05,5.2,6.64,7,11.25,8.39a13.16,13.16,0,0,1,8,6.38,31.64,31.64,0,0,0,2.88,4.51c3,3.83,5.5,7.79,4.41,12.19M129.6,115.85c.64,1.16,1.49,2,1.5,2.88.07,3.08,2.24,5,3.55,7.45s3,5.15,3.5,7.91a45.2,45.2,0,0,0,2.29,8c1.23,3.28,2.73,6.46,4.17,9.66,2.88,6.43,3.78,13.27,4.27,20.19.23,3.32,1.38,4.25,4.2,2.94A165.48,165.48,0,0,1,176.8,166c2.82-.82,5.33-1.69,7.57.71,2.65-1.38,5.09-2.5,7.39-3.88a9.4,9.4,0,0,0,4.8-6.09c.86-3.53,2.52-6.86,3.76-10.3q6-16.69,12-33.41c.8-2.25,2.18-4.52,2.15-6.78,0-3.61,1.53-6.43,2.88-9.52,1.67-3.79,3.82-6.53,8.37-6.54,2.29,0,3.19-1.5,3.2-3.63,0-.85-.06-1.7,0-2.55.49-6.45-1.49-11.6-6-16.61-7-7.77-4.24-6-14.19-6.87-4.77-.42-9.55-.65-14.13,1.61-2,1-4.44,1.86-6.79.07-.53-.4-1.66-.21-2.47-.06-6.65,1.24-13.28,2.61-19.94,3.78-3.79.66-7.92,2.11-10.08-2.89a41.64,41.64,0,0,0-5.11,1.39,5.34,5.34,0,0,0-2.37,2c-1.55,2.48-2,2.72-4.4.68a3.52,3.52,0,0,0-3.79-1,20.18,20.18,0,0,1-3.34.26c-2,.26-4,.59-5.48.8-.66,2.63-.67,4.83-1.71,6.29-1.7,2.4.66,4,.52,6a1.62,1.62,0,0,1-.26.8c-1.75,2.38-1,4.81-.21,7.28.61,1.88,1.13,3.79,1.61,5.71.74,2.94.3,4.08-2.1,5.78-1.23.88-2.48,1.73-4.23,2.94l10,7.6C134,112.61,131.73,114,129.6,115.85ZM238.83,187.6l-1.05.06c-.07,1.11-.56,2.41-.15,3.31,1.13,2.52.65,4.95.33,7.48a74.76,74.76,0,0,0-.66,8.44c-.11,11.18-.09,22.35-.17,33.52a10.26,10.26,0,0,1-.64,3.7,2.37,2.37,0,0,1-1.91,1.19c-.61-.07-1.36-.93-1.61-1.61a10.07,10.07,0,0,1-.29-2.93c-.46-10.59-.88-21.18-1.37-31.77-.08-1.74-.4-3.47-.64-5.44-4.65,2.69-6,2-6.45-2.65-.08-.85-.05-1.7-.11-2.55-.29-3.94-.56-7.89-.92-11.83a14.41,14.41,0,0,0-.8-2.68c-8.09,2.18-15.81,4.3-23.56,6.33a6.49,6.49,0,0,0-5,4.52c-2.73,7.85-5.77,15.6-8.68,23.39-2,5.44-3.66,10.92-2.09,16.83.38,1.4-.22,2.72-1.83,2.71-1.91,0-2.7,1.24-3.65,2.45-2.59,3.31-3.67,7.28-4.87,11.18a5.39,5.39,0,0,0,.19,2c2.27.89,4.35,1.78,6.48,2.51,3.83,1.32,7.79,2.33,11.54,3.85a110.77,110.77,0,0,1,16.89,8.74c11.77,7.33,24.92,8.62,38.46,6.93a13.55,13.55,0,0,0,2.49-.89c-.9-8.63-1.59-17.07-2.72-25.44-.92-6.81-2.49-13.53-3.51-20.33-.36-2.45.24-5,0-7.52-.75-9.57-1.62-19.14-2.55-28.7A32.25,32.25,0,0,0,238.83,187.6Zm59.1,98.13c2.76,1.47,5.15,1.29,7.52,1.5,2.94.26,3.86-.34,3.16-3.2a21.54,21.54,0,0,0-.95-2.36c-2.89-7.65-5.57-15.39-8.74-22.93-2.82-6.7-4-14.2-9.22-19.8-.34-.37-.36-1.05-.52-1.59-1.3-4.45-2.42-9-3.95-13.34-3.47-9.84-7.21-19.58-10.67-29.42a6.41,6.41,0,0,0-4.26-4.31c-4.81-1.53-9.65-3-14.53-4.25-1.8-.46-3.84-1.33-5.79.4a16.84,16.84,0,0,0-.09,2.39c.9,9.7,1.73,19.41,2.82,29.08a27.92,27.92,0,0,0,2.19,7.27,14.43,14.43,0,0,1,.59,8.06c-.7,3.54-2,7-1,10.8a47.66,47.66,0,0,1,1,7.56c.79,9.28,1.53,18.56,2.3,28,1.64.75,3.51,1.22,4.85,2.32,1.62,1.33,3.21,2.62,4.89,3.83,2.06,1.47,3.39,1.14,5.41.27l1.11,3.68c2.29-1,4.28-1.87,6.32-2.62a8.87,8.87,0,0,1,3.59-.84c4.17.37,8.85-.85,11.92,3.45.19.27,1,.09,1.69.13C297.64,288.55,297.74,287.52,297.93,285.73Zm-53.56-174.6-1,.05c0,1.77-.13,3.54,0,5.29q2,22.38,4,44.75c.15,1.71.33,3.38,2,4.44a4.4,4.4,0,0,1,1.9,4.42c-.15,2-.24,3.95-.39,5.92a2.76,2.76,0,0,0,2.49,3.31c3.88.71,7.74,1.54,11.63,2.14,3.69.57,4.79-.8,3.52-4.27-3.57-9.78-7.22-19.53-10.82-29.3q-4.45-12-8.86-24.1C247.26,119.58,245.84,115.35,244.37,111.13Zm-33.84,63.74a24.88,24.88,0,0,1-3.47.45c-2.63-.06-4.17,1.66-5.48,3.47a3.33,3.33,0,0,0-.17,3.06c.38.59,2,.76,2.91.54,3.82-.91,7.57-2.09,11.38-3.06,3.34-.85,3.58-1.13,3-4.68-.3-1.81-.64-3.61-.86-5.43-.34-2.71.4-3.82,2.49-3.92s3.45,1.16,3.49,3.75c0,1.54-.4,3.14-.12,4.62.2,1.06,1.27,2.78,1.89,2.76a9.31,9.31,0,0,0,4.64-1.61c.66-.44.79-2,.79-3,0-10-.13-20.06-.3-30.08q-.28-17.16-.78-34.31a32.64,32.64,0,0,0-1.11-5.53l-.95,0a25.52,25.52,0,0,0-.87,2.5,23.22,23.22,0,0,1-.66,3.28c-1.28,3.1-2.86,6.09-4.05,9.22-4.53,12-8.95,24-13.39,36.05-1,2.66-.27,3.66,2.56,3.65,1.82,0,3.95-.5,4.79,1.64.77,1.94-1.61,2.35-2.37,3.59a2.26,2.26,0,0,0-.15.39c1.42,5.47,1.43,6.33-.58,10.28-.59-.52-.78-1.4-1.29-2a11.54,11.54,0,0,0-2.13-1.63l-.71.43C209.48,171,210,172.73,210.53,174.87ZM182,198.11l-.45-1c-4.27,1.58-8.4,3.56-12.53,5.48s-9.2,2.32-13,6.18c3.31,1.43,6.22,1.57,9,.09a7.1,7.1,0,0,1,5.69-.7c1.46.44,2.92.92,4.34,1.49s2.54.66,3.13-.93C179.5,205.21,180.73,201.65,182,198.11Zm-14.36,35.5L161,238.05c.52,3,2.66,4.48,4.92,6.59C166.52,240.74,168.65,237.72,167.63,233.61ZM214.29,56.19l-.11-1.26-4.38.27C211.75,57.37,213,58,214.29,56.19Z"/></g></g></svg>