<svg xmlns="http://www.w3.org/2000/svg" viewBox="0 0 1343.6 976.68"><defs><style>.cls-1{fill:#4b4341;}</style></defs><g id="Layer_2" data-name="Layer 2"><g id="Layer_1-2" data-name="Layer 1"><path class="cls-1" d="M1343.43,976.68H0V299.34c2.49.53,5,1.15,7.46,1.56,3.94.65,7.89,1.2,11.85,1.71,5.52.71,11,1.47,16.57,2,6.39.62,12.79,1,19.19,1.54,8.3.64,16.6.89,24.44-2.5a134.83,134.83,0,0,1,21.73-7.25c11.93-2.9,23.69-6.43,35.82-8.57a185.84,185.84,0,0,0,24.54-6,43.87,43.87,0,0,1,29.73.67c4.2,1.57,8.53,2.85,12.57,4.74,5.57,2.59,10.86,5.77,16.4,8.44,3,1.47,5.46,4.36,9.26,4.09,2.42,3.26,6.59,1.5,9.69,3.42,2.33,1.45,5.66,1.41,8.58,1.78,7.79,1,15.58,2.09,23.41,2.64,7.26.51,14.5,1.36,21.9.19,4.55-.71,9.23-.7,13.51-2.62,6-2.68,11.9-5.44,17.7-8.44a54.21,54.21,0,0,1,41.59-4.09c3.05.89,6.26,1.3,9.23,2.38,4.18,1.54,8.18,3.55,12.29,5.27,4.66,1.94,9.41,3.67,14,5.68a107.25,107.25,0,0,0,22.46,7c6.66,1.3,13.27.51,19.82-.84a19,19,0,0,1,9.83.6c5,1.58,9.93,3.23,15,4.58,10.2,2.73,20.41,5.41,30.68,7.88,13.76,3.31,27.85,4.26,41.92,4.81,14.91.58,29.77-.73,44.52-2.88,6.21-.9,12.35-2.36,18.48-3.74,8.62-1.94,17.33-3.66,25.79-6.18,9.46-2.81,18.73-6.32,28-9.72,7.54-2.77,15-5.69,20.92-11.53,4.07-4,8.44-7.76,12.3-12,2.32-2.54,4.34-5.28,7.54-6.81,2.41-1.16,4.76-2.45,7.2-3.55,8.26-3.75,16.31-8,25-10.74a53.35,53.35,0,0,0,9.45-4.26,13.65,13.65,0,0,0,6.74-7.64c2-6,5.89-7.88,11.36-7.75,3,.07,5.9.27,8.85.14A14.29,14.29,0,0,0,778,238.46a14.46,14.46,0,0,1,3.39-2.79c7.26-4.4,14.2-9.32,22.14-12.63,8.11-3.37,16-7.38,23.93-11.11l2.33-.65.13-.05,3-1.62.9-.42.81-.32.8-.46.86-.31.81-.16,1.52-.72.93-.83,2.32-.76.14,0,1-.27a2.08,2.08,0,0,0,.63-.47l4.63-1.67.18-.06,1.36-.8.21-.13,1.48-.64.19-.05,2.26-.73.16-.05,1.36-.83,1-1c.9-.07,2.19.22,2.64-.26,1.67-1.81,3.59-1.45,5.72-1l-6-3-.07-.09-1.26-1.1-1-1.37c-2.35-2.22-5.08-4.17-5.49-8l-1.89.92-2.9-2a3.6,3.6,0,0,0-.29-.55c-.11-.49-.06-1.22-.37-1.43-1.4-1-2.89-1.78-4.35-2.65l0,0c-1.17-2.42-3.34-3.67-5.63-4.78-.07-.24-.13-.48-.2-.72l.21.68c-.11.36-.23.71-.35,1.07-2.23-1.06-2.86,1.16-4.27,2.19-2.41-1.55-4.64.08-7,.54s-4.76-1.83-6.57.93L815,175.46c-4.46.92-7.11.27-10.59-2.42l-2.74,1.25-.7-.94c-.76-1.38-1.25-3-2.34-4.09a4.71,4.71,0,0,1-1.56-3.9,4.5,4.5,0,0,0-.26-1.16l-1.83-.28c-.78-1.89-1.06-3.76-2.14-4.87a2.92,2.92,0,0,1-1.06-3,13.45,13.45,0,0,0,0-2.69c-2.48-.47-2.86-.84-3.73-2.58s-1.84-3.26-3-5.31c.16-.48.52-1.6.63-1.93-.74-1.6-1.26-2.51-1.59-3.5-.21-.61.06-1.41-.21-2-2.31-4.89-2.59-10.2-3.24-15.44v-.86l.28-1.86a40.63,40.63,0,0,1,3.91-4c3.94-3,8-5.83,12-8.86a7.13,7.13,0,0,0,2.37-3.1c.37-1.07.27-3.34-.15-3.47-2.37-.77-2-2.41-2.21-4.26-.13-1.49-1.43-2.85-1.72-4.36a21.1,21.1,0,0,1,0-5.21,10.87,10.87,0,0,1,.69-2.19,8.09,8.09,0,0,0,.63-2.61c-.33-4.74,2.45-7.73,6.11-9.58,6.2-3.12,12.71-5.63,19-8.48,6.55-2.94,13.1-5.9,19.56-9,5.31-2.56,10.47-5.43,15.76-8,6.73-3.31,13.57-6.4,20.3-9.72q21-10.33,41.84-20.81c2.52-1.25,5-2.55,7.5-3.85,7.32-3.81,14.33-2.6,21.06,1.45,7.36,4.43,14.72,8.87,21.9,13.58,5.83,3.83,11.35,4.86,18.07,1.65,10.52-5,21.46-9.18,32.21-13.73,6.91-2.93,13.77-6,20.72-8.82,6.06-2.49,12.06-5.31,18.64-6.16,11.37-1.46,16.71,1.76,21.58,10.15,4.5,7.76,8.88,15.6,13.28,23.42a63.36,63.36,0,0,1,3.66,7.15c1.13,2.82.83,5.41-1.84,7.56-2.94,2.34-5.6,5-8.42,7.51-4.31,3.79-5.47,8.17-3.47,13.71A25.92,25.92,0,0,1,1085.72,80,103.35,103.35,0,0,1,1083,97c-.51,2.15-.3,3.24,1.53,4.24a7.78,7.78,0,0,0,1-.5c13.69-8.72,27.33-17.52,41.07-26.14,10.69-6.71,21.48-13.25,32.29-19.77a31.8,31.8,0,0,1,7.24-3.38c4.79-1.42,7,.08,8.2,4.92a81.79,81.79,0,0,0,7.33,20A90.49,90.49,0,0,0,1205.39,105a90.76,90.76,0,0,0,19.91,11.92c6.73,2.94,13.46,5.36,20.94,4.86,7-.47,11.54,3.76,15.47,8.61,2.93,3.62,5.09,7.86,7.88,11.61,2,2.73,4.11,5.64,8,6.21s7.41,1.18,11.1,1.84c10.69,1.89,21.42,3.57,32,5.8a44.85,44.85,0,0,1,22.91,12.64c-.06,2-.16,4-.16,6Q1343.43,575.61,1343.43,976.68Z"/></g></g></svg>